<?xml version="1.0" encoding="UTF-8"?>
<svg width="4363px" height="1725px" viewBox="0 0 4363 1725" xmlns="http://www.w3.org/2000/svg" xmlns:xlink="http://www.w3.org/1999/xlink" version="1.1">
 <!-- Generated by Pixelmator Pro 2.1.5 -->
 <path id="Form" d="M1473 1724.602 C1460.102 1724.853 1453.994 1724.563 1449.773 1723.5 1446.623 1722.706 1441.802 1720.92 1439.06 1719.53 1436.317 1718.141 1432.512 1715.633 1430.604 1713.957 1428.696 1712.282 1425.979 1708.593 1424.567 1705.759 1422.446 1701.502 1422.002 1699.208 1422.01 1692.554 1422.017 1686.178 1422.517 1683.432 1424.406 1679.374 1425.719 1676.555 1428.378 1672.73 1430.316 1670.874 1432.254 1669.018 1436.463 1666.106 1439.67 1664.403 1443.307 1662.471 1445.611 1660.569 1445.794 1659.348 1445.956 1658.271 1445.122 1656.516 1443.942 1655.447 1442.761 1654.379 1441.166 1652.288 1440.398 1650.802 1439.629 1649.316 1439 1645.665 1439 1642.689 1439 1638.539 1439.602 1636.373 1441.587 1633.39 1443.01 1631.25 1445.822 1628.069 1447.837 1626.321 1450.622 1623.904 1451.26 1622.795 1450.5 1621.695 1449.95 1620.9 1446.532 1617.38 1442.904 1613.874 1437.803 1608.944 1435.8 1606.14 1434.063 1601.5 1432.141 1596.365 1431.867 1593.986 1432.167 1585 1432.467 1575.996 1432.91 1573.699 1435.271 1568.875 1436.785 1565.782 1440.283 1561.138 1443.044 1558.556 1445.805 1555.973 1450.637 1552.655 1453.782 1551.182 1459.211 1548.639 1460.232 1548.51 1474 1548.629 1481.975 1548.698 1497.95 1549.148 1509.5 1549.628 1530.5 1550.5 1530.5 1550.5 1530.5 1553 1530.5 1555.408 1530.189 1555.529 1522 1556.292 1517.325 1556.727 1512.439 1557.31 1511.143 1557.588 1509.213 1558 1508.871 1558.581 1509.252 1560.796 1509.509 1562.283 1511.009 1566.2 1512.586 1569.5 1515.174 1574.913 1515.457 1576.528 1515.477 1586 1515.498 1595.602 1515.25 1597.008 1512.581 1602.446 1510.975 1605.716 1507.691 1610.362 1505.281 1612.771 1502.872 1615.18 1497.913 1618.55 1494.261 1620.259 1488.334 1623.032 1486.432 1623.404 1476.56 1623.722 1470.477 1623.918 1464.028 1624.307 1462.229 1624.588 1460.429 1624.869 1457.365 1626.496 1455.42 1628.205 1453.474 1629.913 1451.009 1633.023 1449.941 1635.115 1448.874 1637.208 1448 1640.773 1448 1643.037 1448 1646.206 1448.64 1647.794 1450.783 1649.936 1452.859 1652.013 1455.227 1653.008 1460.115 1653.859 1463.717 1654.487 1474.052 1655.007 1483.082 1655.016 1493.184 1655.025 1501.673 1655.543 1505.147 1656.36 1508.254 1657.092 1512.819 1658.876 1515.292 1660.325 1517.766 1661.775 1521.016 1664.419 1522.516 1666.202 1524.016 1667.984 1525.976 1670.979 1526.872 1672.857 1528.036 1675.298 1528.5 1679.088 1528.5 1686.149 1528.5 1695.069 1528.224 1696.555 1525.65 1701.47 1524.083 1704.464 1520.581 1708.989 1517.868 1711.526 1515.156 1714.064 1510.588 1717.212 1507.718 1718.523 1504.848 1719.833 1499.8 1721.661 1496.5 1722.583 1492.237 1723.775 1485.433 1724.359 1473 1724.602 Z M2356 1724.602 C2343.102 1724.853 2336.994 1724.563 2332.773 1723.5 2329.623 1722.706 2324.802 1720.92 2322.06 1719.53 2319.317 1718.141 2315.512 1715.633 2313.604 1713.957 2311.696 1712.282 2308.979 1708.593 2307.567 1705.759 2305.446 1701.502 2305.002 1699.208 2305.01 1692.554 2305.018 1686.178 2305.517 1683.432 2307.406 1679.374 2308.719 1676.555 2311.378 1672.73 2313.316 1670.874 2315.254 1669.018 2319.463 1666.106 2322.67 1664.403 2326.307 1662.471 2328.611 1660.569 2328.794 1659.348 2328.956 1658.271 2328.122 1656.516 2326.942 1655.447 2325.761 1654.379 2324.166 1652.288 2323.398 1650.802 2322.629 1649.316 2322 1645.665 2322 1642.689 2322 1638.539 2322.603 1636.373 2324.587 1633.39 2326.01 1631.25 2328.822 1628.069 2330.837 1626.321 2333.622 1623.904 2334.26 1622.795 2333.5 1621.695 2332.95 1620.9 2329.532 1617.38 2325.904 1613.874 2320.803 1608.944 2318.8 1606.14 2317.063 1601.5 2315.141 1596.365 2314.867 1593.986 2315.167 1585 2315.468 1575.996 2315.91 1573.699 2318.271 1568.875 2319.785 1565.782 2323.283 1561.138 2326.044 1558.556 2328.805 1555.973 2333.637 1552.655 2336.782 1551.182 2342.211 1548.639 2343.232 1548.51 2357 1548.629 2364.975 1548.698 2380.95 1549.148 2392.5 1549.628 2413.5 1550.5 2413.5 1550.5 2413.5 1553 2413.5 1555.408 2413.189 1555.529 2405 1556.292 2400.325 1556.727 2395.439 1557.31 2394.143 1557.588 2392.213 1558 2391.871 1558.581 2392.252 1560.796 2392.509 1562.283 2394.009 1566.2 2395.586 1569.5 2398.174 1574.913 2398.457 1576.528 2398.477 1586 2398.498 1595.602 2398.25 1597.008 2395.581 1602.446 2393.975 1605.716 2390.69 1610.362 2388.281 1612.771 2385.873 1615.18 2380.913 1618.55 2377.261 1620.259 2371.334 1623.032 2369.432 1623.404 2359.56 1623.722 2353.477 1623.918 2347.028 1624.307 2345.229 1624.588 2343.429 1624.869 2340.365 1626.496 2338.42 1628.205 2336.474 1629.913 2334.009 1633.023 2332.941 1635.115 2331.874 1637.208 2331 1640.773 2331 1643.037 2331 1646.206 2331.64 1647.794 2333.782 1649.936 2335.859 1652.013 2338.227 1653.008 2343.115 1653.859 2346.717 1654.487 2357.052 1655.007 2366.082 1655.016 2376.184 1655.025 2384.673 1655.543 2388.147 1656.36 2391.254 1657.092 2395.819 1658.876 2398.292 1660.325 2400.765 1661.775 2404.016 1664.419 2405.516 1666.202 2407.016 1667.984 2408.976 1670.979 2409.872 1672.857 2411.036 1675.298 2411.5 1679.088 2411.5 1686.149 2411.5 1695.069 2411.224 1696.555 2408.65 1701.47 2407.083 1704.464 2403.581 1708.989 2400.868 1711.526 2398.156 1714.064 2393.588 1717.212 2390.718 1718.523 2387.848 1719.833 2382.8 1721.661 2379.5 1722.583 2375.237 1723.775 2368.433 1724.359 2356 1724.602 Z M1470 1716.885 C1475.225 1716.942 1482.153 1716.554 1485.395 1716.023 1488.637 1715.492 1493.643 1714.374 1496.519 1713.538 1499.395 1712.702 1503.929 1710.551 1506.595 1708.759 1509.295 1706.943 1512.747 1703.38 1514.388 1700.712 1516.813 1696.771 1517.409 1694.558 1517.753 1688.212 1518.117 1681.501 1517.859 1679.919 1515.768 1676.025 1514.035 1672.797 1512.05 1670.873 1508.651 1669.124 1505.492 1667.498 1501.228 1666.439 1495.719 1665.912 1491.199 1665.48 1482.775 1665.101 1477 1665.071 1471.225 1665.04 1462.735 1665.448 1458.133 1665.977 1452.014 1666.681 1448.387 1667.714 1444.633 1669.826 1441.248 1671.729 1438.526 1674.276 1436.639 1677.303 1434.553 1680.651 1433.643 1683.599 1433.278 1688.197 1433.002 1691.663 1433.301 1696.438 1433.942 1698.807 1434.583 1701.175 1436.662 1704.834 1438.562 1706.937 1440.462 1709.04 1444.305 1711.745 1447.102 1712.949 1449.899 1714.152 1454.058 1715.506 1456.344 1715.959 1458.63 1716.411 1464.775 1716.828 1470 1716.885 Z M2353.5 1716.882 C2359.55 1716.908 2367.894 1716.325 2372.042 1715.585 2376.19 1714.845 2382.304 1712.866 2385.628 1711.188 2388.953 1709.509 2393.042 1706.578 2394.714 1704.673 2396.386 1702.769 2398.535 1699.166 2399.49 1696.667 2400.745 1693.38 2401.121 1690.075 2400.851 1684.719 2400.541 1678.572 2400.022 1676.718 2397.802 1673.808 2396.278 1671.809 2393.058 1669.419 2390.314 1668.25 2387.666 1667.121 2382.264 1665.704 2378.308 1665.099 2374.353 1664.495 2366.114 1664 2360 1664 2353.886 1664 2345.647 1664.495 2341.692 1665.099 2337.736 1665.704 2332.359 1667.11 2329.743 1668.225 2327.126 1669.34 2323.694 1671.723 2322.115 1673.521 2320.537 1675.319 2318.456 1678.858 2317.491 1681.385 2316.169 1684.845 2315.854 1687.829 2316.216 1693.461 2316.594 1699.347 2317.257 1701.789 2319.326 1704.916 2320.772 1707.101 2323.9 1710.029 2326.277 1711.422 2328.655 1712.816 2333.277 1714.603 2336.55 1715.394 2339.823 1716.186 2347.45 1716.855 2353.5 1716.882 Z M1311.5 1610.5 C1244.325 1610.885 1228.634 1611.353 1227.105 1612.03 1224.795 1613.052 1224.732 1613.361 1225.313 1620.795 1225.645 1625.032 1226.837 1631.164 1227.963 1634.42 1229.088 1637.676 1231.121 1642.237 1232.479 1644.554 1233.837 1646.872 1237.189 1650.783 1239.927 1653.245 1242.797 1655.825 1247.362 1658.626 1250.703 1659.857 1253.891 1661.032 1259.658 1662.428 1263.517 1662.96 1267.954 1663.571 1273.837 1663.583 1279.517 1662.992 1284.458 1662.477 1292.267 1660.926 1296.872 1659.545 1301.476 1658.163 1305.639 1657.277 1306.122 1657.575 1306.605 1657.874 1307 1659.409 1307 1660.988 1307 1662.566 1306.297 1664.56 1305.439 1665.418 1304.58 1666.277 1301.542 1667.654 1298.689 1668.478 1295.835 1669.302 1291.076 1670.432 1288.114 1670.988 1285.151 1671.545 1277.051 1671.97 1270.114 1671.934 1262.453 1671.894 1255.385 1671.299 1252.112 1670.419 1249.149 1669.623 1244.104 1667.574 1240.902 1665.867 1237.699 1664.16 1232.573 1660.137 1229.511 1656.927 1226.078 1653.327 1222.587 1648.233 1220.405 1643.637 1218.439 1639.497 1216.244 1632.697 1215.468 1628.342 1214.699 1624.029 1214.054 1616.162 1214.035 1610.86 1214.016 1605.559 1214.703 1597.459 1215.563 1592.86 1216.5 1587.845 1218.672 1581.299 1220.99 1576.5 1223.115 1572.1 1227.166 1565.92 1229.993 1562.766 1233.879 1558.429 1237.23 1555.992 1243.739 1552.766 1252.346 1548.5 1252.346 1548.5 1265.941 1548.5 1279.297 1548.5 1279.653 1548.558 1286.236 1551.797 1289.921 1553.61 1294.955 1557.113 1297.423 1559.581 1299.891 1562.048 1303.682 1567.608 1305.848 1571.936 1308.193 1576.621 1310.253 1582.575 1310.939 1586.652 1311.574 1590.419 1311.959 1597.325 1311.796 1602 L1311.5 1610.5 Z M1700.5 1610.5 C1633.325 1610.885 1617.634 1611.353 1616.105 1612.03 1613.795 1613.052 1613.732 1613.361 1614.313 1620.795 1614.645 1625.032 1615.837 1631.164 1616.963 1634.42 1618.088 1637.676 1620.121 1642.237 1621.479 1644.554 1622.837 1646.872 1626.189 1650.783 1628.927 1653.245 1631.797 1655.824 1636.362 1658.626 1639.703 1659.857 1642.891 1661.032 1648.65 1662.431 1652.5 1662.965 1657.124 1663.607 1662.643 1663.589 1668.762 1662.912 1673.855 1662.349 1681.673 1660.795 1686.133 1659.46 1690.594 1658.125 1694.639 1657.277 1695.122 1657.575 1695.605 1657.874 1696 1659.409 1696 1660.988 1696 1662.566 1695.297 1664.56 1694.439 1665.418 1693.58 1666.277 1690.542 1667.654 1687.689 1668.478 1684.835 1669.302 1680.076 1670.432 1677.114 1670.988 1674.151 1671.545 1666.051 1671.97 1659.114 1671.934 1651.453 1671.894 1644.385 1671.299 1641.112 1670.419 1638.149 1669.623 1633.104 1667.574 1629.902 1665.867 1626.699 1664.16 1621.573 1660.137 1618.511 1656.927 1615.078 1653.327 1611.587 1648.233 1609.405 1643.637 1607.439 1639.497 1605.244 1632.697 1604.468 1628.342 1603.699 1624.029 1603.054 1616.162 1603.035 1610.86 1603.016 1605.559 1603.703 1597.459 1604.563 1592.86 1605.5 1587.845 1607.672 1581.299 1609.99 1576.5 1612.115 1572.1 1616.166 1565.92 1618.993 1562.766 1622.879 1558.429 1626.23 1555.992 1632.739 1552.766 1641.346 1548.5 1641.346 1548.5 1654.941 1548.5 1668.297 1548.5 1668.653 1548.558 1675.236 1551.797 1678.921 1553.61 1683.955 1557.113 1686.423 1559.581 1688.891 1562.048 1692.682 1567.608 1694.848 1571.936 1697.193 1576.621 1699.253 1582.575 1699.939 1586.652 1700.574 1590.419 1700.959 1597.325 1700.796 1602 L1700.5 1610.5 Z M2148.5 1610.5 C2081.325 1610.885 2065.634 1611.353 2064.105 1612.03 2061.795 1613.052 2061.732 1613.361 2062.313 1620.795 2062.645 1625.032 2063.837 1631.164 2064.963 1634.42 2066.088 1637.676 2068.121 1642.237 2069.479 1644.554 2070.837 1646.872 2074.189 1650.783 2076.927 1653.245 2079.796 1655.824 2084.362 1658.626 2087.703 1659.857 2090.891 1661.032 2096.65 1662.431 2100.5 1662.965 2105.124 1663.607 2110.643 1663.589 2116.761 1662.912 2121.855 1662.349 2129.673 1660.795 2134.133 1659.46 2138.594 1658.125 2142.639 1657.277 2143.122 1657.575 2143.605 1657.874 2144 1659.409 2144 1660.988 2144 1662.566 2143.297 1664.56 2142.439 1665.418 2141.58 1666.277 2138.542 1667.654 2135.689 1668.478 2132.835 1669.302 2128.076 1670.432 2125.114 1670.988 2122.151 1671.545 2114.051 1671.97 2107.114 1671.934 2099.453 1671.894 2092.385 1671.299 2089.112 1670.419 2086.149 1669.623 2081.104 1667.574 2077.902 1665.867 2074.699 1664.16 2069.573 1660.137 2066.511 1656.927 2063.078 1653.327 2059.587 1648.233 2057.405 1643.637 2055.439 1639.497 2053.244 1632.697 2052.468 1628.342 2051.699 1624.029 2051.054 1616.162 2051.035 1610.86 2051.016 1605.559 2051.703 1597.459 2052.563 1592.86 2053.5 1587.845 2055.672 1581.299 2057.99 1576.5 2060.115 1572.1 2064.167 1565.92 2066.993 1562.766 2070.879 1558.429 2074.23 1555.992 2080.739 1552.766 2089.346 1548.5 2089.346 1548.5 2102.941 1548.5 2116.297 1548.5 2116.653 1548.558 2123.236 1551.797 2126.921 1553.61 2131.955 1557.113 2134.423 1559.581 2136.891 1562.048 2140.682 1567.608 2142.848 1571.936 2145.193 1576.621 2147.253 1582.575 2147.939 1586.652 2148.574 1590.419 2148.959 1597.325 2148.796 1602 L2148.5 1610.5 Z M2224.04 1671.933 C2217.688 1671.896 2210.702 1671.296 2208.5 1670.598 2206.3 1669.9 2202.642 1668.374 2200.372 1667.207 2198.101 1666.039 2194.404 1662.994 2192.155 1660.439 2189.906 1657.884 2187.039 1653.253 2185.783 1650.147 2183.518 1644.545 2183.5 1644.129 2183.5 1597.5 2183.5 1550.5 2183.5 1550.5 2187.5 1550.5 2191.5 1550.5 2191.5 1550.5 2191.672 1587 2191.766 1607.075 2192.325 1627.645 2192.914 1632.711 2193.503 1637.778 2194.731 1643.853 2195.644 1646.211 2196.555 1648.57 2198.355 1651.928 2199.643 1653.672 2200.93 1655.417 2204.35 1657.999 2207.242 1659.409 2210.134 1660.819 2215.425 1662.372 2219 1662.859 2222.696 1663.362 2228.52 1663.372 2232.5 1662.883 2236.35 1662.41 2242.057 1661.074 2245.183 1659.914 2248.309 1658.755 2252.678 1656.256 2254.891 1654.361 2257.19 1652.393 2260.264 1648.178 2262.059 1644.532 2264.124 1640.337 2265.7 1634.953 2266.655 1628.824 2267.682 1622.24 2268.167 1609.363 2268.305 1585 2268.5 1550.5 2268.5 1550.5 2272.5 1550.5 2276.5 1550.5 2276.5 1550.5 2276.5 1610 2276.5 1669.5 2276.5 1669.5 2273.038 1669.5 2269.805 1669.5 2269.519 1669.234 2268.731 1665.5 2268.266 1663.3 2267.671 1660.458 2267.408 1659.185 2267.083 1657.611 2266.341 1656.971 2265.091 1657.185 2264.081 1657.358 2261.417 1659.168 2259.172 1661.207 2256.927 1663.245 2253.283 1665.835 2251.075 1666.961 2248.867 1668.088 2244.478 1669.682 2241.32 1670.505 2237.726 1671.441 2231.267 1671.975 2224.04 1671.933 Z M2530.5 1610.5 C2463.325 1610.885 2447.634 1611.353 2446.105 1612.03 2443.795 1613.052 2443.732 1613.361 2444.313 1620.795 2444.645 1625.032 2445.837 1631.164 2446.963 1634.42 2448.088 1637.676 2450.121 1642.237 2451.479 1644.554 2452.837 1646.872 2456.189 1650.783 2458.927 1653.245 2461.796 1655.824 2466.362 1658.626 2469.703 1659.857 2472.891 1661.032 2478.65 1662.431 2482.5 1662.965 2487.124 1663.607 2492.643 1663.589 2498.761 1662.912 2503.855 1662.349 2511.673 1660.795 2516.133 1659.46 2520.594 1658.125 2524.639 1657.277 2525.122 1657.575 2525.605 1657.874 2526 1659.409 2526 1660.988 2526 1662.566 2525.297 1664.56 2524.439 1665.418 2523.58 1666.277 2520.542 1667.654 2517.689 1668.478 2514.835 1669.302 2510.076 1670.432 2507.114 1670.988 2504.151 1671.545 2496.051 1671.97 2489.114 1671.934 2481.453 1671.894 2474.385 1671.299 2471.112 1670.419 2468.149 1669.623 2463.104 1667.574 2459.902 1665.867 2456.699 1664.16 2451.573 1660.137 2448.511 1656.927 2445.078 1653.327 2441.587 1648.233 2439.405 1643.637 2437.439 1639.497 2435.244 1632.697 2434.468 1628.342 2433.699 1624.029 2433.054 1616.162 2433.035 1610.86 2433.016 1605.559 2433.703 1597.459 2434.563 1592.86 2435.5 1587.845 2437.672 1581.299 2439.99 1576.5 2442.115 1572.1 2446.167 1565.92 2448.993 1562.766 2452.879 1558.429 2456.23 1555.992 2462.739 1552.766 2471.346 1548.5 2471.346 1548.5 2484.941 1548.5 2498.297 1548.5 2498.653 1548.558 2505.236 1551.797 2508.921 1553.61 2513.955 1557.113 2516.423 1559.581 2518.891 1562.048 2522.682 1567.608 2524.848 1571.936 2527.193 1576.621 2529.253 1582.575 2529.939 1586.652 2530.574 1590.419 2530.959 1597.325 2530.796 1602 L2530.5 1610.5 Z M2748.085 1671.69 C2740.338 1671.846 2733.578 1671.454 2730.5 1670.671 2727.75 1669.971 2723.025 1668.071 2720 1666.449 2716.975 1664.827 2712.367 1661.338 2709.761 1658.695 2707.081 1655.977 2703.505 1650.736 2701.532 1646.633 2699.201 1641.788 2697.489 1636.106 2696.378 1629.533 2695.113 1622.039 2694.86 1616.445 2695.319 1606.095 2695.651 1598.618 2696.625 1589.621 2697.484 1586.103 2698.343 1582.585 2700.666 1576.622 2702.646 1572.853 2704.627 1569.084 2707.941 1564.088 2710.012 1561.75 2712.082 1559.413 2716.198 1556.045 2719.158 1554.267 2722.119 1552.489 2727.541 1550.294 2731.208 1549.389 2736.135 1548.173 2740.837 1547.857 2749.225 1548.178 2759.278 1548.563 2761.313 1548.96 2767.037 1551.654 2770.592 1553.326 2775.929 1556.901 2778.899 1559.597 2781.868 1562.294 2784.9 1564.644 2785.635 1564.821 2786.729 1565.083 2787.021 1558.956 2787.237 1531.321 2787.5 1497.5 2787.5 1497.5 2792 1497.5 2796.5 1497.5 2796.5 1497.5 2796.756 1583.279 2796.99 1662.036 2796.877 1669.11 2795.37 1669.688 2794.467 1670.035 2793.008 1669.864 2792.128 1669.309 2791.248 1668.754 2790.158 1666.545 2789.707 1664.4 2789.256 1662.255 2788.674 1659.468 2788.414 1658.207 2788.153 1656.946 2787.281 1655.661 2786.475 1655.352 2785.589 1655.012 2782.825 1656.787 2779.479 1659.845 2776.437 1662.625 2770.96 1666.371 2767.309 1668.168 2761.01 1671.27 2760.028 1671.45 2748.085 1671.69 Z M2929.5 1610.5 C2862.325 1610.885 2846.634 1611.353 2845.105 1612.03 2842.795 1613.052 2842.732 1613.361 2843.313 1620.795 2843.645 1625.032 2844.837 1631.164 2845.963 1634.42 2847.088 1637.676 2849.121 1642.237 2850.479 1644.554 2851.837 1646.872 2855.189 1650.783 2857.927 1653.245 2860.797 1655.825 2865.362 1658.626 2868.703 1659.857 2871.891 1661.032 2877.658 1662.428 2881.517 1662.96 2885.954 1663.571 2891.837 1663.583 2897.517 1662.992 2902.458 1662.477 2910.267 1660.926 2914.872 1659.545 2919.476 1658.163 2923.639 1657.277 2924.122 1657.575 2924.605 1657.874 2925 1659.409 2925 1660.988 2925 1662.566 2924.297 1664.56 2923.439 1665.418 2922.58 1666.277 2919.542 1667.654 2916.689 1668.478 2913.835 1669.302 2909.076 1670.432 2906.114 1670.988 2903.151 1671.545 2895.051 1671.97 2888.114 1671.934 2880.453 1671.894 2873.385 1671.299 2870.112 1670.419 2867.149 1669.623 2862.104 1667.574 2858.902 1665.867 2855.699 1664.16 2850.573 1660.137 2847.511 1656.927 2844.078 1653.327 2840.587 1648.233 2838.405 1643.637 2836.439 1639.497 2834.244 1632.697 2833.468 1628.342 2832.699 1624.029 2832.054 1616.162 2832.035 1610.86 2832.016 1605.559 2832.703 1597.459 2833.563 1592.86 2834.5 1587.845 2836.672 1581.299 2838.99 1576.5 2841.115 1572.1 2845.167 1565.92 2847.993 1562.766 2851.879 1558.429 2855.23 1555.992 2861.739 1552.766 2870.346 1548.5 2870.346 1548.5 2883.941 1548.5 2897.297 1548.5 2897.653 1548.558 2904.236 1551.797 2907.921 1553.61 2912.955 1557.113 2915.423 1559.581 2917.891 1562.048 2921.682 1567.608 2923.848 1571.936 2926.193 1576.621 2928.253 1582.575 2928.939 1586.652 2929.574 1590.419 2929.959 1597.325 2929.796 1602 L2929.5 1610.5 Z M962.5 1508.5 C1049.5 1508.5 1049.5 1508.5 1049.5 1512.5 1049.5 1516.5 1049.5 1516.5 1012.169 1517 976.68 1517.475 974.767 1517.596 973.419 1519.441 972.275 1521.006 972 1526.735 972 1549 972 1571.265 972.275 1576.994 973.418 1578.559 974.764 1580.4 976.66 1580.526 1010.168 1581 1045.5 1581.5 1045.5 1581.5 1045.5 1585.5 1045.5 1589.5 1045.5 1589.5 1010.168 1590 976.66 1590.474 974.763 1590.6 973.418 1592.441 972.266 1594.018 972 1600.215 972 1625.5 972 1650.787 972.266 1656.981 973.419 1658.559 974.767 1660.404 976.68 1660.525 1012.169 1661 1049.5 1661.5 1049.5 1661.5 1049.5 1665.5 1049.5 1669.5 1049.5 1669.5 1006.223 1669.761 972.135 1669.966 962.843 1669.754 962.464 1668.761 962.2 1668.067 962.099 1631.725 962.242 1588 L962.5 1508.5 Z M1091.241 1669.808 C1088.419 1670.012 1086.813 1669.675 1086.481 1668.808 1086.206 1668.089 1086.098 1641.175 1086.24 1609 1086.5 1550.5 1086.5 1550.5 1089.31 1550.178 1090.856 1550 1092.72 1550.353 1093.452 1550.96 1094.184 1551.567 1095.07 1553.962 1095.42 1556.282 1095.771 1558.602 1096.482 1561.175 1097.001 1562 1097.668 1563.062 1098.344 1563.208 1099.317 1562.5 1100.073 1561.95 1103.492 1559.375 1106.916 1556.779 1110.34 1554.182 1115.685 1551.257 1118.793 1550.279 1123.162 1548.903 1127.852 1548.5 1139.472 1548.5 1151.929 1548.5 1155.325 1548.828 1159.325 1550.414 1161.978 1551.467 1166.343 1554.301 1169.025 1556.712 1171.855 1559.257 1174.987 1563.393 1176.491 1566.573 1177.917 1569.586 1179.554 1575.527 1180.13 1579.775 1180.768 1584.486 1181.045 1603.497 1180.839 1628.5 1180.5 1669.5 1180.5 1669.5 1176 1669.5 1171.5 1669.5 1171.5 1669.5 1170.976 1625 1170.502 1584.828 1170.269 1579.99 1168.575 1575.254 1167.543 1572.369 1165.204 1568.262 1163.377 1566.127 1161.55 1563.992 1157.905 1561.234 1155.277 1559.998 1152.015 1558.463 1147.844 1557.584 1142.121 1557.226 1137.5 1556.937 1130.904 1557.225 1127.415 1557.868 1123.935 1558.509 1119.109 1559.882 1116.691 1560.918 1114.273 1561.955 1110.624 1564.269 1108.583 1566.061 1106.542 1567.854 1103.826 1571.385 1102.547 1573.91 1101.269 1576.434 1099.414 1580.975 1098.426 1584 1096.863 1588.782 1096.555 1594.72 1096.064 1629.5 1095.5 1669.5 1095.5 1669.5 1091.241 1669.808 Z M1353.241 1669.808 C1350.419 1670.012 1348.813 1669.675 1348.481 1668.808 1348.206 1668.089 1348.098 1641.175 1348.24 1609 1348.5 1550.5 1348.5 1550.5 1351.751 1550.187 1354.479 1549.924 1355.162 1550.296 1356.001 1552.502 1356.55 1553.947 1357 1556.62 1357 1558.44 1357 1560.26 1357.281 1563.156 1357.625 1564.875 1357.969 1566.594 1358.828 1568 1359.534 1568 1360.24 1568 1363.037 1565.176 1365.749 1561.724 1369.341 1557.154 1372.423 1554.511 1377.091 1551.999 1383.121 1548.754 1384.171 1548.527 1394.858 1548.164 1402.07 1547.918 1407.132 1548.195 1408.726 1548.921 1410.88 1549.903 1411.147 1550.515 1410.603 1553.233 1410.255 1554.975 1409.424 1556.738 1408.757 1557.15 1408.09 1557.562 1405.51 1557.62 1403.022 1557.279 1400.535 1556.937 1395.85 1556.73 1392.611 1556.819 1388.775 1556.924 1384.864 1557.831 1381.391 1559.421 1378.459 1560.764 1374.037 1563.943 1371.565 1566.486 1369.093 1569.03 1365.685 1573.926 1363.991 1577.367 1362.297 1580.808 1360.235 1587.196 1359.409 1591.562 1358.284 1597.509 1357.856 1608.278 1357.703 1634.5 1357.5 1669.5 1357.5 1669.5 1353.241 1669.808 Z M1563.241 1669.808 C1560.419 1670.012 1558.813 1669.675 1558.481 1668.808 1558.206 1668.089 1558.098 1641.175 1558.24 1609 1558.5 1550.5 1558.5 1550.5 1563 1550.5 1567.5 1550.5 1567.5 1550.5 1567.5 1610 1567.5 1669.5 1567.5 1669.5 1563.241 1669.808 Z M1739.5 1508.5 C1826.5 1508.5 1826.5 1508.5 1826.5 1512.5 1826.5 1516.5 1826.5 1516.5 1789.169 1517 1753.68 1517.475 1751.767 1517.596 1750.419 1519.441 1749.275 1521.006 1749 1526.735 1749 1549 1749 1571.265 1749.275 1576.994 1750.418 1578.559 1751.764 1580.4 1753.66 1580.526 1787.168 1581 1822.5 1581.5 1822.5 1581.5 1822.5 1585.5 1822.5 1589.5 1822.5 1589.5 1787.168 1590 1753.66 1590.474 1751.764 1590.6 1750.418 1592.441 1749.266 1594.019 1749 1600.214 1749 1625.5 1749 1650.787 1749.266 1656.981 1750.419 1658.559 1751.767 1660.404 1753.68 1660.525 1789.169 1661 1826.5 1661.5 1826.5 1661.5 1826.5 1665.5 1826.5 1669.5 1826.5 1669.5 1783.223 1669.761 1749.135 1669.966 1739.843 1669.754 1739.464 1668.761 1739.2 1668.067 1739.099 1631.725 1739.242 1588 L1739.5 1508.5 Z M1868.241 1669.808 C1865.419 1670.012 1863.813 1669.675 1863.481 1668.808 1863.206 1668.089 1863.098 1641.175 1863.24 1609 1863.5 1550.5 1863.5 1550.5 1866.751 1550.187 1869.479 1549.924 1870.162 1550.296 1871.001 1552.502 1871.55 1553.947 1872 1556.62 1872 1558.44 1872 1560.26 1872.281 1563.156 1872.625 1564.875 1872.969 1566.594 1873.828 1568 1874.534 1568 1875.24 1568 1878.037 1565.176 1880.749 1561.724 1884.341 1557.154 1887.423 1554.511 1892.091 1551.999 1898.121 1548.754 1899.171 1548.527 1909.858 1548.164 1917.07 1547.918 1922.132 1548.195 1923.726 1548.921 1925.88 1549.903 1926.147 1550.515 1925.603 1553.233 1925.255 1554.975 1924.424 1556.738 1923.757 1557.15 1923.09 1557.562 1920.51 1557.62 1918.022 1557.279 1915.535 1556.937 1910.85 1556.73 1907.611 1556.819 1903.775 1556.924 1899.864 1557.831 1896.391 1559.421 1893.459 1560.764 1889.037 1563.943 1886.565 1566.486 1884.093 1569.03 1880.685 1573.926 1878.991 1577.367 1877.297 1580.808 1875.235 1587.196 1874.409 1591.562 1873.284 1597.509 1872.856 1608.278 1872.703 1634.5 1872.5 1669.5 1872.5 1669.5 1868.241 1669.808 Z M1984.223 1669.761 C1947.067 1669.99 1941.875 1669.837 1941.359 1668.494 1941.037 1667.654 1940.97 1665.962 1941.211 1664.733 1941.452 1663.505 1955.978 1641.8 1973.49 1616.5 1991.002 1591.2 2006.682 1568.349 2008.334 1565.719 2010.695 1561.962 2011.077 1560.677 2010.12 1559.719 2009.238 1558.835 2000.327 1558.363 1977.701 1558 1946.5 1557.5 1946.5 1557.5 1946.5 1554 1946.5 1550.5 1946.5 1550.5 1986 1550.5 2025.5 1550.5 2025.5 1550.5 2025.797 1553.534 2026.026 1555.865 2024.751 1558.541 2020.297 1565.086 2017.109 1569.771 2001.847 1591.806 1986.383 1614.052 1970.918 1636.299 1957.655 1655.501 1956.908 1656.725 1955.808 1658.527 1955.792 1659.192 1956.824 1660.225 1957.786 1661.188 1966.464 1661.622 1992.299 1662 2026.5 1662.5 2026.5 1662.5 2026.5 1666 2026.5 1669.5 2026.5 1669.5 1984.223 1669.761 Z M2572.241 1669.808 C2569.419 1670.012 2567.813 1669.675 2567.481 1668.808 2567.206 1668.089 2567.098 1641.175 2567.24 1609 2567.5 1550.5 2567.5 1550.5 2570.385 1550.171 2571.971 1549.989 2573.833 1550.439 2574.523 1551.171 2575.212 1551.902 2576.083 1554.664 2576.458 1557.308 2576.833 1559.953 2577.751 1562.351 2578.499 1562.638 2579.246 1562.925 2582.225 1561.287 2585.119 1559 2588.014 1556.712 2592.527 1553.753 2595.15 1552.424 2597.773 1551.095 2602.974 1549.489 2606.709 1548.854 2610.515 1548.208 2618.409 1547.908 2624.666 1548.172 2634.691 1548.594 2636.495 1548.969 2642.33 1551.842 2645.905 1553.601 2650.284 1556.699 2652.063 1558.725 2653.842 1560.751 2656.365 1564.74 2657.67 1567.59 2658.974 1570.44 2660.522 1576.31 2661.109 1580.636 2661.772 1585.514 2662.049 1603.878 2661.839 1629 2661.5 1669.5 2661.5 1669.5 2657 1669.5 2652.5 1669.5 2652.5 1669.5 2651.968 1624.5 2651.513 1586.022 2651.198 1578.898 2649.797 1575.348 2648.895 1573.064 2646.941 1569.357 2645.454 1567.11 2643.681 1564.431 2640.987 1562.165 2637.625 1560.526 2634.806 1559.151 2629.575 1557.629 2626 1557.143 2622.188 1556.625 2616.478 1556.634 2612.194 1557.165 2608.176 1557.662 2602.34 1559.023 2599.225 1560.189 2595.411 1561.616 2591.908 1563.971 2588.497 1567.404 2585.081 1570.842 2582.685 1574.452 2581.136 1578.5 2579.872 1581.8 2578.39 1588.325 2577.842 1593 2577.293 1597.675 2576.767 1616.8 2576.672 1635.5 2576.5 1669.5 2576.5 1669.5 2572.241 1669.808 Z M2748.5 1662.685 C2757.914 1662.427 2760.341 1661.998 2765.333 1659.709 2768.54 1658.239 2772.641 1655.559 2774.446 1653.755 2776.25 1651.95 2778.948 1648.064 2780.44 1645.118 2781.933 1642.172 2783.787 1636.778 2784.56 1633.131 2785.432 1629.015 2785.965 1620.432 2785.965 1610.5 2785.965 1600.325 2785.433 1591.952 2784.504 1587.5 2783.7 1583.65 2781.57 1577.595 2779.771 1574.044 2777.617 1569.794 2775.026 1566.466 2772.184 1564.303 2769.81 1562.496 2764.7 1560.055 2760.83 1558.88 2755.022 1557.115 2752.08 1556.825 2743.976 1557.215 2736.004 1557.599 2733.138 1558.187 2728.735 1560.341 2725.753 1561.8 2721.659 1564.6 2719.637 1566.564 2717.615 1568.527 2714.615 1572.801 2712.97 1576.06 2711.324 1579.319 2709.284 1584.577 2708.436 1587.743 2707.587 1590.909 2706.639 1599.35 2706.328 1606.5 2705.921 1615.889 2706.187 1621.918 2707.288 1628.204 2708.126 1632.991 2709.927 1639.345 2711.291 1642.324 2712.655 1645.303 2715.479 1649.631 2717.567 1651.942 2719.655 1654.254 2723.194 1657.086 2725.432 1658.237 2727.669 1659.388 2731.3 1660.927 2733.5 1661.658 2736.132 1662.533 2741.261 1662.884 2748.5 1662.685 Z M1475.686 1615.731 C1483.866 1615.448 1485.608 1615.035 1491.587 1611.957 1497.335 1608.998 1498.748 1607.708 1501.401 1603 1504.346 1597.772 1504.5 1596.954 1504.5 1586.474 1504.5 1577.752 1504.099 1574.557 1502.582 1571.188 1501.527 1568.846 1499.009 1565.434 1496.986 1563.606 1494.963 1561.778 1491.101 1559.432 1488.404 1558.391 1484.83 1557.013 1480.923 1556.5 1474 1556.5 1467.077 1556.5 1463.17 1557.013 1459.596 1558.391 1456.899 1559.432 1453.016 1561.798 1450.966 1563.65 1448.916 1565.502 1446.18 1569.375 1444.885 1572.258 1442.981 1576.497 1442.528 1579.222 1442.516 1586.5 1442.502 1594.387 1442.852 1596.217 1445.349 1601.301 1447.283 1605.241 1449.469 1607.944 1452.163 1609.726 1454.344 1611.17 1458.462 1613.183 1461.314 1614.2 1465.278 1615.613 1468.665 1615.974 1475.686 1615.731 Z M2358.686 1615.731 C2366.866 1615.448 2368.608 1615.035 2374.587 1611.957 2380.335 1608.998 2381.748 1607.708 2384.401 1603 2387.346 1597.772 2387.5 1596.954 2387.5 1586.474 2387.5 1577.752 2387.099 1574.557 2385.582 1571.188 2384.528 1568.846 2382.009 1565.434 2379.986 1563.606 2377.963 1561.778 2374.101 1559.432 2371.404 1558.391 2367.83 1557.013 2363.923 1556.5 2357 1556.5 2350.077 1556.5 2346.17 1557.013 2342.596 1558.391 2339.899 1559.432 2336.016 1561.798 2333.966 1563.65 2331.916 1565.502 2329.18 1569.375 2327.885 1572.258 2325.981 1576.497 2325.528 1579.222 2325.515 1586.5 2325.502 1594.387 2325.852 1596.217 2328.348 1601.301 2330.283 1605.241 2332.469 1607.944 2335.163 1609.726 2337.344 1611.17 2341.462 1613.183 2344.314 1614.2 2348.278 1615.613 2351.665 1615.974 2358.686 1615.731 Z M1263.257 1603 C1284.695 1603 1297.842 1602.62 1299.066 1601.965 1300.451 1601.223 1300.995 1599.876 1300.983 1597.215 1300.973 1595.172 1300.333 1590.516 1299.56 1586.869 1298.787 1583.222 1296.995 1577.951 1295.579 1575.156 1294.163 1572.361 1291.633 1568.512 1289.957 1566.604 1288.282 1564.696 1284.593 1561.979 1281.759 1560.567 1277.206 1558.298 1275.381 1558 1266.054 1558.001 1256.362 1558.001 1254.973 1558.251 1249.042 1561.057 1245.49 1562.737 1240.99 1565.795 1239.042 1567.853 1237.094 1569.91 1234.21 1573.98 1232.633 1576.897 1231.056 1579.814 1229.143 1584.518 1228.381 1587.35 1227.619 1590.183 1226.703 1594.256 1226.345 1596.402 1225.825 1599.528 1226.063 1600.573 1227.539 1601.652 1228.999 1602.72 1236.424 1603 1263.257 1603 Z M1652.257 1603 C1673.695 1603 1686.842 1602.62 1688.066 1601.965 1689.588 1601.15 1690 1599.849 1690 1595.859 1690 1593.07 1689.291 1588.051 1688.423 1584.704 1687.556 1581.358 1685.949 1576.861 1684.852 1574.711 1683.755 1572.56 1681.114 1568.909 1678.982 1566.596 1676.85 1564.284 1672.754 1561.291 1669.878 1559.946 1665.418 1557.859 1663.171 1557.5 1654.575 1557.5 1645.779 1557.5 1643.787 1557.834 1638.88 1560.135 1635.789 1561.584 1631.377 1564.472 1629.075 1566.552 1626.773 1568.631 1623.737 1572.299 1622.329 1574.702 1620.92 1577.105 1618.897 1581.868 1617.832 1585.286 1616.767 1588.704 1615.624 1593.48 1615.292 1595.899 1614.801 1599.472 1615.034 1600.552 1616.535 1601.649 1618 1602.721 1625.386 1603 1652.257 1603 Z M2100.257 1603 C2121.695 1603 2134.842 1602.62 2136.066 1601.965 2137.588 1601.15 2138 1599.849 2138 1595.859 2138 1593.07 2137.291 1588.051 2136.423 1584.704 2135.556 1581.358 2133.949 1576.861 2132.852 1574.711 2131.755 1572.56 2129.114 1568.909 2126.982 1566.596 2124.85 1564.284 2120.754 1561.291 2117.878 1559.946 2113.418 1557.859 2111.171 1557.5 2102.575 1557.5 2093.779 1557.5 2091.787 1557.834 2086.88 1560.135 2083.789 1561.584 2079.376 1564.472 2077.075 1566.552 2074.773 1568.631 2071.737 1572.299 2070.329 1574.702 2068.92 1577.105 2066.897 1581.868 2065.832 1585.286 2064.768 1588.704 2063.624 1593.48 2063.292 1595.899 2062.801 1599.472 2063.034 1600.552 2064.535 1601.649 2066 1602.721 2073.386 1603 2100.257 1603 Z M2482.257 1603 C2503.695 1603 2516.842 1602.62 2518.066 1601.965 2519.588 1601.15 2520 1599.849 2520 1595.859 2520 1593.07 2519.291 1588.051 2518.423 1584.704 2517.556 1581.358 2515.949 1576.861 2514.852 1574.711 2513.755 1572.56 2511.114 1568.909 2508.982 1566.596 2506.85 1564.284 2502.754 1561.291 2499.878 1559.946 2495.418 1557.859 2493.171 1557.5 2484.575 1557.5 2475.779 1557.5 2473.787 1557.834 2468.88 1560.135 2465.789 1561.584 2461.376 1564.472 2459.075 1566.552 2456.773 1568.631 2453.737 1572.299 2452.329 1574.702 2450.92 1577.105 2448.897 1581.868 2447.832 1585.286 2446.768 1588.704 2445.624 1593.48 2445.292 1595.899 2444.801 1599.472 2445.034 1600.552 2446.535 1601.649 2448 1602.721 2455.386 1603 2482.257 1603 Z M2881.257 1603 C2902.695 1603 2915.842 1602.62 2917.066 1601.965 2918.588 1601.15 2919 1599.849 2919 1595.859 2919 1593.07 2918.291 1588.051 2917.423 1584.704 2916.556 1581.358 2914.949 1576.861 2913.852 1574.711 2912.755 1572.56 2910.114 1568.909 2907.982 1566.596 2905.85 1564.284 2901.754 1561.291 2898.878 1559.946 2894.418 1557.859 2892.171 1557.5 2883.575 1557.5 2874.779 1557.5 2872.787 1557.834 2867.88 1560.135 2864.789 1561.584 2860.376 1564.472 2858.075 1566.552 2855.773 1568.631 2852.737 1572.299 2851.329 1574.702 2849.92 1577.105 2847.897 1581.868 2846.832 1585.286 2845.768 1588.704 2844.624 1593.48 2844.292 1595.899 2843.801 1599.472 2844.034 1600.552 2845.535 1601.649 2847 1602.721 2854.386 1603 2881.257 1603 Z M1563.449 1524.799 C1561.445 1524.995 1559.814 1524.452 1558.699 1523.22 1557.466 1521.858 1557 1519.554 1557 1514.826 1557 1509.783 1557.413 1507.936 1558.829 1506.655 1559.835 1505.745 1561.79 1505 1563.174 1505 1564.558 1505 1566.432 1505.82 1567.34 1506.823 1568.247 1507.826 1569.241 1510.638 1569.549 1513.073 1569.951 1516.254 1569.601 1518.485 1568.304 1521 1566.925 1523.675 1565.781 1524.57 1563.449 1524.799 Z" fill="#009fe3" fill-opacity="1" stroke="none"/>
 <path id="Form-1" d="M2517.201 789.916 C2501.335 789.851 2494.281 789.396 2487 787.966 2481.775 786.94 2472.775 784.894 2467 783.419 2461.225 781.943 2453.067 779.477 2448.871 777.938 2444.674 776.398 2436.799 772.9 2431.371 770.163 2425.942 767.426 2418.125 762.809 2414 759.903 2409.875 756.997 2401.55 749.642 2395.5 743.56 2389.45 737.477 2381.478 728.225 2377.784 723 2374.091 717.775 2368.311 708.184 2364.941 701.686 2361.571 695.188 2357.031 685.513 2354.853 680.186 2352.674 674.859 2349.31 665.325 2347.377 659 2345.444 652.675 2342.808 642.325 2341.519 636 2340.23 629.675 2338.463 619.55 2337.593 613.5 2336.722 607.45 2335.559 596.425 2335.007 589 2334.456 581.575 2334.013 567.175 2334.023 557 2334.033 546.825 2334.69 531.811 2335.483 523.636 2336.276 515.461 2338.114 502.861 2339.568 495.636 2341.022 488.411 2343.693 477.972 2345.503 472.437 2347.313 466.902 2351.151 457.677 2354.031 451.937 2356.911 446.197 2361.005 438.941 2363.128 435.813 2365.252 432.685 2369.547 427.363 2372.674 423.985 2375.801 420.608 2381.139 415.861 2384.536 413.437 2387.933 411.013 2393.59 407.683 2397.106 406.037 2400.623 404.392 2407.06 402.135 2411.41 401.023 2417.607 399.438 2422.537 399 2434.177 399 2445.546 399 2451.32 399.495 2458.768 401.109 2464.12 402.268 2472.775 404.75 2478 406.625 2483.225 408.499 2492.581 412.544 2498.791 415.615 2505.001 418.685 2514.187 423.893 2519.204 427.187 2524.221 430.482 2531.515 435.725 2535.413 438.839 2539.311 441.952 2543.738 445.703 2545.25 447.173 2547.211 449.079 2548 450.844 2548 453.326 2548 455.24 2546.39 461.463 2544.422 467.153 2542.454 472.844 2540.166 478.555 2539.337 479.844 2538.381 481.332 2537.17 482.016 2536.024 481.717 2535.031 481.457 2528.968 477.14 2522.551 472.124 2516.134 467.108 2506.072 460.165 2500.192 456.695 2494.311 453.226 2485.675 448.761 2481 446.775 2476.325 444.788 2468.9 442.204 2464.5 441.032 2460.1 439.86 2451.693 438.636 2445.817 438.312 2437.563 437.857 2433.584 438.109 2428.317 439.418 2424.568 440.351 2418.125 442.765 2414 444.784 2408.696 447.379 2404.44 450.51 2399.467 455.477 2395.598 459.34 2390.358 465.925 2387.823 470.11 2385.287 474.296 2381.619 481.721 2379.672 486.61 2377.725 491.5 2374.998 500 2373.612 505.5 2372.226 511 2370.393 520.675 2369.537 527 2368.682 533.325 2367.691 546.909 2367.336 557.186 2366.933 568.877 2367.155 582.166 2367.93 592.686 2368.611 601.934 2370.041 614.675 2371.107 621 2372.173 627.325 2374.378 637.601 2376.007 643.837 2377.636 650.072 2380.597 659.297 2382.587 664.337 2384.578 669.376 2388.188 677.269 2390.61 681.876 2393.032 686.483 2397.069 693.343 2399.581 697.121 2402.093 700.9 2407.542 707.599 2411.69 712.008 2415.838 716.418 2422.851 722.753 2427.275 726.086 2431.699 729.42 2440.309 734.561 2446.409 737.512 2452.509 740.463 2461.388 744.001 2466.141 745.375 2470.893 746.748 2478.093 748.597 2482.141 749.483 2486.188 750.369 2496.291 751.36 2504.59 751.685 2518.733 752.239 2519.732 752.158 2520.517 750.388 2520.977 749.35 2521.545 724.487 2521.778 695.137 2522.131 650.863 2521.969 641.541 2520.833 640.404 2520.079 639.651 2507.826 635.459 2493.604 631.09 2479.382 626.72 2467.24 622.641 2466.623 622.025 2465.923 621.327 2465.378 615.207 2465.175 605.765 2464.968 596.1 2465.252 589.742 2465.961 588.185 2466.924 586.072 2467.569 585.816 2470.786 586.264 2472.829 586.548 2484.625 589.804 2497 593.499 2509.375 597.194 2526.246 602.325 2534.492 604.901 2546.948 608.793 2549.693 610 2550.727 612.042 2551.656 613.879 2551.96 624.221 2551.931 653 2551.909 674.175 2551.511 711.975 2551.047 737 2550.546 763.984 2549.779 783.58 2549.162 785.154 2548.328 787.283 2547.111 788.025 2543.012 788.904 2540.151 789.518 2528.79 789.963 2517.201 789.916 Z M1741.628 629.906 C1739.357 629.854 1733 628.731 1727.5 627.41 1722 626.09 1715.557 624.283 1713.182 623.396 1710.107 622.247 1708.454 620.878 1707.439 618.641 1706.656 616.914 1691.39 539.562 1673.515 446.748 1655.641 353.935 1633.601 239.3 1624.537 192.004 1615.474 144.708 1608.338 105.283 1608.679 104.394 1609.146 103.177 1610.189 102.9 1612.9 103.276 1614.88 103.55 1622.342 105.934 1629.481 108.573 1636.621 111.212 1643.391 114.3 1644.527 115.436 1646.034 116.943 1647.468 121.682 1649.841 133 1651.629 141.525 1667.255 219.375 1684.566 306 1701.877 392.625 1717.802 473.625 1719.955 486 1722.107 498.375 1725.278 517.267 1727 527.983 1728.723 538.699 1730.352 547.686 1730.621 547.954 1730.889 548.222 1731.468 547.86 1731.908 547.149 1732.347 546.438 1735.464 533.401 1738.833 518.178 1742.202 502.955 1748.322 477.675 1752.432 462 1756.542 446.325 1767.119 406.611 1775.937 373.746 1784.754 340.881 1797.179 294.756 1803.548 271.246 1809.917 247.736 1817.99 218.425 1821.487 206.112 1824.985 193.799 1828.554 183.017 1829.418 182.153 1830.745 180.827 1831.661 180.762 1835.308 181.737 1837.683 182.373 1844.35 184.717 1850.123 186.947 1855.896 189.177 1861.479 191.63 1862.531 192.399 1864.304 193.695 1864.356 194.292 1863.258 200.648 1862.606 204.417 1856.9 226.85 1850.576 250.5 1844.253 274.15 1826.478 339.742 1811.077 396.26 1795.675 452.778 1775.143 527.928 1765.45 563.26 1755.757 598.592 1747.36 628.063 1746.791 628.75 1746.221 629.438 1743.898 629.958 1741.628 629.906 Z" fill="#ffffff" fill-opacity="1" stroke="none"/>
 <path id="Form-2" d="M3527.639 1301.882 C3526.463 1301.817 3512.524 1300.7 3496.664 1299.401 3480.804 1298.1 3440.193 1294.766 3406.416 1291.991 3372.64 1289.216 3318.451 1284.732 3285.998 1282.027 3253.544 1279.322 3204.605 1275.251 3177.245 1272.982 3149.885 1270.713 3125.7 1268.326 3123.5 1267.678 3120.121 1266.683 3119.368 1265.957 3118.651 1263 3118.184 1261.075 3117.787 1077.281 3117.769 854.569 3117.75 623.867 3118.115 448.144 3118.618 446.167 3119.103 444.258 3120.194 442.263 3121.042 441.734 3122.177 441.026 3143.108 448.592 3200.294 470.38 3243.035 486.665 3311.866 513.008 3353.252 528.92 3394.638 544.832 3448.975 565.795 3474 575.505 3499.025 585.214 3522.728 594.5 3526.674 596.141 3532.623 598.614 3534.031 599.65 3534.924 602.211 3535.684 604.392 3535.981 700.995 3535.935 931.399 3535.9 1110.755 3535.531 1266.677 3535.116 1277.894 3534.392 1297.501 3534.274 1298.36 3532.071 1300.144 3530.81 1301.165 3528.816 1301.947 3527.639 1301.882 Z M3281.766 1162 C3282.329 1162 3292.522 1148.058 3304.419 1131.018 3316.316 1113.977 3349.879 1065.82 3379.004 1024.003 3408.128 982.185 3436.995 940.726 3443.152 931.872 3451.571 919.766 3454.113 915.403 3453.404 914.278 3452.885 913.455 3431.561 901.405 3406.018 887.499 3378.921 872.747 3359.243 861.442 3358.778 860.358 3358.274 859.183 3359.608 851.336 3362.41 839 3364.846 828.275 3375.002 783.95 3384.979 740.5 3394.955 697.05 3403.365 660.488 3403.667 659.25 3404.035 657.744 3403.767 657.01 3402.858 657.031 3402.111 657.048 3400.098 658.96 3398.384 661.281 3396.671 663.601 3358.742 717.579 3314.098 781.231 3269.455 844.884 3232.16 898.302 3231.221 899.938 3230.082 901.922 3229.846 903.247 3230.513 903.913 3231.063 904.464 3248.385 911.29 3269.007 919.084 3289.628 926.878 3311.064 935.012 3316.642 937.159 3323.814 939.921 3326.931 941.628 3327.287 942.988 3327.563 944.045 3317.478 992.068 3304.875 1049.705 3292.272 1107.342 3281.687 1156.188 3281.353 1158.25 3280.982 1160.534 3281.144 1162 3281.766 1162 Z" fill="#ffffff" fill-opacity="1" stroke="none"/>
 <path id="Form-3" d="M3285.353 1155.418 C3284.567 1155.719 3283.69 1155.356 3283.404 1154.61 3283.118 1153.865 3287.85 1130.47 3293.919 1102.622 3299.989 1074.775 3309.982 1029.155 3316.126 1001.245 3322.271 973.335 3327.344 948.475 3327.399 946 3327.5 941.507 3327.492 941.496 3322 938.835 3318.975 937.369 3303 931.117 3286.5 924.941 3270 918.765 3251.1 911.631 3244.5 909.087 3234.573 905.262 3232.445 904.078 3232.181 902.235 3231.95 900.621 3254.506 867.724 3314.103 782.754 3359.335 718.264 3396.829 665.169 3397.422 664.765 3398.015 664.361 3399.124 664.024 3399.886 664.015 3400.952 664.004 3401.131 665.026 3400.663 668.439 3400.329 670.881 3390.759 713.293 3379.398 762.689 3368.037 812.085 3358.521 854.371 3358.251 856.657 3357.854 860.022 3358.162 861.159 3359.866 862.617 3361.023 863.608 3379.19 873.803 3400.235 885.271 3421.281 896.74 3441.425 907.798 3445 909.844 3450.269 912.86 3451.495 914.032 3451.472 916.032 3451.454 917.651 3423.133 959.14 3369.113 1036.685 3323.831 1101.687 3286.139 1155.116 3285.353 1155.418 Z M2278.275 738.916 C2276.199 738.87 2243.9 732.375 2206.5 724.483 2169.1 716.591 2136.887 709.658 2134.915 709.076 2132.777 708.445 2130.897 707.07 2130.259 705.668 2129.504 704.012 2129.439 681.877 2130.04 630.658 2130.509 590.696 2131.607 499.161 2132.479 427.249 2133.352 355.337 2134.394 294.925 2134.793 293 2135.464 289.771 2135.791 289.51 2139.01 289.631 2140.929 289.703 2174.45 301.09 2213.5 314.937 2270.365 335.1 2284.968 340.633 2286.851 342.729 2289.146 345.283 2289.193 345.721 2288.822 360.923 2288.571 371.207 2287.999 377.294 2287.139 378.838 2286.154 380.604 2285.265 381.032 2283.503 380.59 2282.221 380.268 2256.945 371.823 2227.336 361.823 2197.726 351.823 2172.15 343.61 2170.5 343.571 2167.5 343.5 2167.5 343.5 2166.802 357.5 2166.418 365.2 2165.822 394.305 2165.477 422.178 2164.849 472.855 2164.849 472.855 2167.426 474.543 2168.843 475.472 2186.765 481.609 2207.251 488.181 2227.738 494.753 2251.696 502.463 2260.491 505.315 2274.771 509.945 2276.628 510.804 2277.84 513.343 2278.787 515.325 2279.204 520.572 2279.219 530.682 2279.232 539.5 2278.791 546.164 2278.093 547.695 2277.137 549.792 2276.408 550.141 2273.723 549.783 2271.95 549.547 2248 542.227 2220.5 533.516 2193 524.805 2169.5 517.475 2168.279 517.228 2166.658 516.899 2165.78 517.415 2165.026 519.139 2164.367 520.648 2163.757 548.976 2163.336 597.628 2162.677 673.757 2162.677 673.757 2164.747 674.865 2165.886 675.474 2190.371 680.724 2219.159 686.532 2247.946 692.34 2273.746 697.634 2276.49 698.296 2280.372 699.233 2281.779 700.125 2282.826 702.315 2283.76 704.269 2284.167 709.465 2284.156 719.315 2284.148 727.117 2283.67 734.738 2283.095 736.25 2282.199 738.606 2281.508 738.988 2278.275 738.916 Z M2058.275 697.88 C2056.199 697.814 2021.482 690.242 1981.128 681.053 1940.773 671.864 1906.49 663.869 1904.944 663.285 1902.768 662.464 1901.969 661.352 1901.409 658.369 1901.012 656.249 1901.216 614.799 1901.863 566.257 1902.51 517.716 1903.698 434.688 1904.504 381.75 1905.31 328.813 1906.34 269.075 1906.794 249 1907.39 222.592 1907.972 211.85 1908.898 210.15 1909.866 208.372 1910.826 207.901 1912.839 208.216 1914.302 208.445 1947.45 220.017 1986.5 233.93 2025.55 247.843 2059.89 260.118 2062.811 261.208 2066.621 262.629 2068.398 263.917 2069.101 265.765 2069.64 267.182 2070.101 275.577 2070.125 284.421 2070.152 293.854 2069.714 301.682 2069.068 303.361 2068.148 305.746 2067.511 306.146 2065.233 305.763 2063.73 305.51 2037.3 296.406 2006.5 285.531 1968.546 272.129 1949.05 265.716 1946 265.629 1941.5 265.5 1941.5 265.5 1941.218 280.5 1941.063 288.75 1940.552 320.025 1940.082 350 1939.538 384.672 1939.576 404.933 1940.187 405.691 1940.715 406.346 1966.925 415.475 1998.432 425.977 2029.938 436.479 2056.568 445.696 2057.608 446.458 2059.338 447.724 2059.5 449.329 2059.5 465.229 2059.5 477.205 2059.103 483.485 2058.223 485.413 2057.132 487.804 2056.476 488.151 2053.723 487.788 2051.95 487.555 2026.875 479.546 1998 469.991 1969.125 460.436 1944.151 452.592 1942.501 452.559 1939.864 452.507 1939.415 452.921 1938.771 456 1938.369 457.925 1937.562 495.05 1936.977 538.5 1936.393 581.95 1936.165 618.502 1936.47 619.726 1936.885 621.388 1938.353 622.333 1942.263 623.456 1945.143 624.283 1970.675 630.603 1999 637.5 2027.325 644.397 2052.975 650.819 2056 651.77 2060.221 653.098 2061.82 654.173 2062.874 656.395 2063.87 658.494 2064.245 663.859 2064.235 675.895 2064.227 685.452 2063.76 693.667 2063.135 695.25 2062.203 697.61 2061.514 697.983 2058.275 697.88 Z M3425 466.667 C3423.625 466.759 3387.175 453.229 3344 436.601 3300.825 419.973 3264.375 405.431 3263 404.284 3260.5 402.199 3260.5 402.199 3260.189 380.85 3260.018 369.107 3260.146 358.063 3260.474 356.306 3260.831 354.389 3261.832 352.871 3262.977 352.507 3264.188 352.123 3290.086 361.609 3333.925 378.497 3371.897 393.124 3407.713 406.924 3413.516 409.163 3419.32 411.402 3425.065 414.041 3426.284 415.027 3428.426 416.76 3428.511 417.533 3428.836 438.16 3429.021 449.897 3428.796 461.075 3428.336 463 3427.675 465.769 3426.978 466.535 3425 466.667 Z" fill="#009fe3" fill-opacity="1" stroke="none"/>
 <path id="Form-4" d="M18.5 1425.472 C16.3 1425.736 13.512 1425.536 12.305 1425.029 10.912 1424.442 9.892 1422.899 9.513 1420.803 9.185 1418.986 9.048 1385.675 9.208 1346.777 9.494 1277.566 9.543 1276.013 11.5 1274.115 13.115 1272.549 154.183 1243.514 743.5 1123.451 1145 1041.652 1475.402 974.505 1477.726 974.236 1481.594 973.787 1482.039 973.974 1482.976 976.438 1483.656 978.224 1484 1023.191 1484 1110.111 1484 1241.091 1484 1241.091 1481.687 1243.404 1480.308 1244.783 1477.583 1245.976 1474.937 1246.359 1472.497 1246.712 1144.7 1287.049 746.5 1335.996 348.3 1384.944 20.7 1425.208 18.5 1425.472 Z M2720 1306.618 C2680.713 1307.272 2678.42 1307.213 2677 1305.501 2675.696 1303.929 2675.465 1291.97 2675.234 1213.817 2674.969 1123.941 2674.969 1123.941 2677.28 1121.629 2679.229 1119.68 2681.034 1119.213 2688.795 1118.647 2693.857 1118.278 2764.036 1113.048 2844.749 1107.025 2925.462 1101.001 2994.086 1095.81 2997.246 1095.488 3002.451 1094.957 3003.228 1095.137 3005.496 1097.405 3008 1099.909 3008 1099.909 3008 1196.889 3008 1257.942 3007.636 1294.827 3007.018 1296.453 3006.478 1297.874 3004.806 1299.503 3003.303 1300.075 3001.607 1300.72 2955.236 1302.026 2881.035 1303.52 2815.291 1304.844 2742.825 1306.237 2720 1306.618 Z M14.02 1100 C11.645 1100 10.73 1099.419 9.975 1097.435 9.358 1095.811 9 1041.85 9 950.403 9 831.36 9.238 805.369 10.35 802.718 11.589 799.767 72.552 766.386 745.463 400.198 1149.032 180.583 1479.962 1.037 1480.863 1.209 1481.797 1.387 1482.847 3.02 1483.308 5.011 1483.753 6.93 1483.978 147.2 1483.808 316.722 1483.5 624.945 1483.5 624.945 1481.463 626.981 1480.052 628.392 1254.517 701.456 748.258 864.509 346.115 994.029 15.708 1100 14.02 1100 Z M2684.264 864.553 C2680.651 865.035 2679.658 864.749 2677.514 862.605 2675 860.091 2675 860.091 2675 644.611 2675 509.326 2675.357 428.19 2675.96 426.605 2676.69 424.684 2678.188 423.724 2682.21 422.597 2685.12 421.782 2740.711 409.606 2805.746 395.54 2870.781 381.474 2942.065 366.073 2964.154 361.318 3004.315 352.67 3004.315 352.67 3006.157 354.946 3007.936 357.143 3008 365.477 3007.985 595.361 3007.974 784.876 3007.713 834.01 3006.71 836 3005.893 837.622 3004.23 838.758 3001.975 839.234 3000.064 839.638 2928.75 845.373 2843.5 851.978 2758.25 858.584 2686.594 864.243 2684.264 864.553 Z" fill="#000000" fill-opacity="1" stroke="none"/>
 <path id="Form-5" d="M3569.265 1346.614 C3566.094 1346.748 3455.95 1337.938 3324.5 1327.036 3193.05 1316.133 3083.936 1306.828 3082.025 1306.357 3079.855 1305.822 3078.076 1304.561 3077.29 1303 3076.282 1301 3076.027 1209.002 3076.015 843.315 3076.005 536.509 3076.334 385.252 3077.015 383.461 3077.914 381.096 3078.453 380.843 3081.765 381.232 3083.819 381.473 3195.3 423.853 3329.5 475.409 3463.7 526.965 3574.4 570.027 3575.5 571.102 3577.493 573.049 3577.5 574.374 3577.5 958.478 3577.5 1263.005 3577.241 1344.159 3576.265 1345.135 3575.586 1345.814 3572.436 1346.48 3569.265 1346.614 Z M3532 1301.667 C3535.5 1301.5 3535.5 1301.5 3535.751 951.037 3535.952 671.52 3535.75 600.321 3534.751 599.323 3534.063 598.635 3440.854 562.506 3327.62 519.036 3214.386 475.566 3120.899 440 3119.87 440 3118.046 440 3118 450.221 3118 853.531 3118 1183.436 3118.253 1267.159 3119.25 1267.538 3119.938 1267.8 3212.3 1275.624 3324.5 1284.924 3436.7 1294.225 3530.075 1301.759 3532 1301.667 Z" fill="#646464" fill-opacity="1" stroke="none"/>
 <path id="Form-6" d="M4358.5 1092.258 C4357.4 1092.523 4197.458 1062.891 4003.074 1026.408 3752.347 979.351 3649.191 959.619 3648.074 958.503 3646.656 957.085 3646.474 939.424 3646.242 780.085 3645.99 607.843 3646.033 603.181 3647.877 600.903 3649.771 598.565 3649.771 598.565 3662.135 603.265 3668.936 605.849 3828.578 667.116 4016.895 739.413 4205.213 811.71 4360.013 871.584 4360.896 872.467 4362.349 873.92 4362.5 884.265 4362.5 981.986 4362.5 1052.637 4362.155 1090.224 4361.5 1090.838 4360.95 1091.353 4359.6 1091.992 4358.5 1092.258 Z" fill="#646464" fill-opacity="1" stroke="none"/>
 <path id="Form-7" d="M4355.795 1411.878 C4354.533 1411.811 4196.45 1398.795 4004.5 1382.953 3812.55 1367.112 3653.936 1353.779 3652.025 1353.325 3649.833 1352.805 3648.084 1351.577 3647.29 1350 3646.306 1348.049 3646.026 1329.009 3646.015 1263.315 3646.006 1213.987 3646.384 1178.121 3646.927 1176.692 3647.451 1175.314 3648.988 1173.969 3650.461 1173.599 3651.917 1173.234 3808.448 1191.728 4005.168 1215.509 4198.823 1238.919 4358.129 1258.534 4359.182 1259.097 4360.234 1259.661 4361.524 1261.249 4362.048 1262.626 4362.618 1264.126 4363 1293.589 4363 1336.111 4363 1407.091 4363 1407.091 4360.545 1409.545 4359.195 1410.896 4357.058 1411.945 4355.795 1411.878 Z" fill="#646464" fill-opacity="1" stroke="none"/>
 <path id="Form-8" d="M2665 1306.871 C2660.875 1306.818 2400.775 1293.367 2087 1276.982 1773.225 1260.597 1509.802 1246.862 1501.615 1246.461 1489.039 1245.844 1486.442 1245.442 1484.865 1243.865 1483.064 1242.064 1483 1237.474 1483 1109.191 1483 997.93 1483.224 976.076 1484.378 974.497 1485.714 972.671 1504.07 974.879 2079.118 1046.056 2581.155 1108.196 2672.753 1119.772 2674.255 1121.266 2675.934 1122.935 2676.017 1127.994 2675.766 1214.052 2675.533 1293.677 2675.312 1305.192 2674 1306.021 2673.175 1306.543 2669.125 1306.925 2665 1306.871 Z M2671.715 863.906 C2670.497 863.854 2403.325 810.724 2078 745.839 1569.956 644.51 1486.253 627.577 1484.75 625.822 1483.091 623.885 1483.001 607.6 1483.014 314.139 1483.021 143.838 1483.309 3.446 1483.654 2.158 1484.194 0.141 1484.781 -0.126 1487.891 0.23 1489.876 0.457 1755.2 94.957 2077.5 210.23 2399.8 325.503 2666.039 420.773 2669.142 421.94 2673.129 423.44 2674.958 424.713 2675.378 426.281 2675.705 427.502 2675.979 525.617 2675.986 644.316 2675.996 791.196 2675.669 860.749 2674.965 862.066 2674.386 863.147 2672.953 863.958 2671.715 863.906 Z M2465.5 622.5 C2507.951 635.191 2520.772 639.372 2521.38 639.98 2521.987 640.587 2522.482 643.653 2522.48 646.792 2522.479 649.931 2522.37 674.213 2522.238 700.75 2522.002 748.601 2521.982 749.018 2519.854 751.145 2517.825 753.175 2517.083 753.256 2506.104 752.653 2499.722 752.303 2489.073 750.93 2482.44 749.602 2475.807 748.274 2466.807 745.961 2462.44 744.462 2458.073 742.963 2450.45 739.71 2445.5 737.234 2440.55 734.758 2434.025 731.042 2431 728.976 2427.975 726.91 2422.9 722.933 2419.723 720.137 2416.545 717.342 2411.646 712.455 2408.835 709.277 2406.024 706.1 2401.199 699.672 2398.112 694.993 2395.025 690.314 2390.177 681.539 2387.336 675.493 2384.497 669.447 2380.831 660.45 2379.191 655.5 2377.551 650.55 2375.059 641.325 2373.654 635 2372.249 628.675 2370.393 618.55 2369.529 612.5 2368.666 606.45 2367.528 593.85 2367 584.5 2366.472 575.15 2366.28 563 2366.573 557.5 2366.866 552 2367.561 542.775 2368.117 537 2368.672 531.225 2370.021 521.775 2371.115 516 2372.208 510.225 2374.186 501.9 2375.511 497.5 2376.836 493.1 2380.001 485.229 2382.544 480.01 2385.087 474.79 2389.127 467.773 2391.523 464.415 2393.919 461.058 2398.408 456 2401.5 453.174 2404.591 450.349 2410.809 446.209 2415.317 443.975 2420.987 441.166 2426.348 439.411 2432.705 438.285 2441.291 436.763 2442.597 436.77 2452.564 438.394 2458.433 439.35 2466.894 441.378 2471.367 442.9 2475.84 444.421 2484.9 448.44 2491.5 451.83 2498.1 455.22 2507.453 460.841 2512.285 464.321 2517.117 467.8 2524.749 473.685 2529.245 477.398 2536.258 483.19 2537.58 483.927 2538.554 482.596 2539.178 481.742 2541.65 475.296 2544.047 468.272 2546.443 461.247 2548.583 454.309 2548.801 452.854 2549.144 450.562 2548.002 449.214 2540.258 442.768 2535.341 438.677 2528.435 433.284 2524.909 430.786 2521.384 428.288 2514.225 423.801 2509 420.815 2503.775 417.829 2495.225 413.539 2490 411.282 2484.775 409.024 2476.887 406.051 2472.471 404.675 2468.055 403.298 2460.986 401.458 2456.763 400.586 2451.729 399.546 2443.874 399 2433.959 399 2421.933 399 2417.169 399.425 2410.713 401.073 2406.246 402.214 2399.977 404.444 2396.781 406.03 2393.585 407.616 2388.596 410.489 2385.695 412.415 2382.793 414.341 2377.238 419.198 2373.35 423.208 2369.462 427.219 2364.139 433.812 2361.521 437.86 2358.903 441.908 2354.852 449.333 2352.519 454.36 2350.185 459.387 2347.333 466.425 2346.18 470 2345.027 473.575 2342.953 481.032 2341.57 486.572 2340.187 492.111 2338.388 501.111 2337.572 506.572 2336.755 512.032 2335.562 524.6 2334.919 534.5 2334.23 545.112 2334.017 559.888 2334.4 570.5 2334.758 580.4 2335.512 593.45 2336.076 599.5 2336.641 605.55 2337.989 616.081 2339.073 622.903 2340.156 629.724 2342.193 639.849 2343.599 645.403 2345.005 650.956 2347.744 660.417 2349.685 666.427 2351.626 672.436 2355.542 682.561 2358.387 688.927 2361.232 695.292 2366.412 705.225 2369.898 711 2373.384 716.775 2379.051 725.1 2382.492 729.5 2385.933 733.9 2392.967 741.572 2398.124 746.55 2403.281 751.527 2410.875 757.971 2415 760.87 2419.125 763.768 2426.875 768.332 2432.223 771.011 2437.571 773.69 2446.796 777.443 2452.723 779.35 2458.65 781.258 2468.691 783.975 2475.036 785.39 2481.38 786.805 2489.705 788.391 2493.536 788.916 2497.366 789.441 2510.625 789.757 2523 789.619 2537.677 789.455 2546.242 788.966 2547.633 788.211 2549.729 787.075 2549.777 786.443 2550.359 752.777 2550.685 733.925 2551.187 694.367 2551.475 664.872 2551.888 622.655 2551.733 611.044 2550.75 610.302 2550.062 609.784 2531.725 604.02 2510 597.492 2488.275 590.964 2469.252 585.431 2467.728 585.195 2464.955 584.766 2464.955 584.766 2465.228 603.633 L2465.5 622.5 Z M2280.25 739.909 C2284 740 2284 740 2284 719.979 2284 700.165 2283.977 699.947 2281.75 699.004 2280.512 698.48 2253.907 692.906 2222.627 686.617 2183.584 678.767 2165.243 674.673 2164.127 673.558 2162.829 672.262 2162.443 669.365 2162.22 659.217 2162.065 652.223 2162.375 618.814 2162.908 584.976 2163.525 545.809 2164.269 522.423 2164.955 520.619 2165.892 518.155 2166.454 517.842 2169.266 518.225 2171.045 518.467 2194.775 525.747 2222 534.404 2249.225 543.06 2273.188 550.394 2275.25 550.703 2279 551.263 2279 551.263 2279 531.214 2279 511.165 2279 511.165 2274.75 509.571 2272.413 508.694 2247.351 500.567 2219.057 491.51 2190.764 482.453 2167.001 474.43 2166.252 473.68 2165.162 472.59 2164.901 466.536 2164.947 443.409 2164.978 427.509 2165.241 400.325 2165.531 383 2165.821 365.675 2166.382 349.925 2166.779 348 2167.438 344.802 2167.802 344.501 2171 344.507 2172.925 344.511 2199.612 353.014 2230.305 363.402 2267.946 376.143 2286.439 381.961 2287.122 381.278 2287.686 380.714 2288.394 372.005 2288.722 361.575 2289.206 346.242 2289.059 342.649 2287.906 341.579 2287.133 340.862 2253.656 328.645 2213.512 314.43 2173.369 300.214 2139.282 288.401 2137.762 288.178 2135.306 287.818 2134.993 288.09 2134.936 290.636 2134.9 292.211 2133.626 386.65 2132.104 500.5 2130.583 614.35 2129.599 707.815 2129.919 708.2 2130.238 708.585 2163.35 715.856 2203.5 724.359 2243.65 732.862 2278.188 739.859 2280.25 739.909 Z M2060.75 698.897 C2064 699 2064 699 2064 676.479 2064 654.075 2063.988 653.952 2061.75 652.993 2060.512 652.463 2034.525 645.948 2004 638.517 1973.475 631.086 1946.025 624.217 1943 623.253 1939.002 621.979 1937.21 620.817 1936.439 619 1935.688 617.233 1935.728 593.62 1936.574 538.5 1937.233 495.6 1938.164 458.925 1938.643 457 1939.467 453.693 1939.735 453.508 1943.507 453.647 1945.703 453.727 1970.9 461.519 1999.5 470.962 2028.1 480.406 2053.115 488.376 2055.089 488.676 2058.678 489.22 2058.678 489.22 2059.339 473.951 2059.703 465.553 2060 455.866 2060 452.424 2060 446.165 2060 446.165 2055.75 444.564 2053.413 443.683 2026.75 434.725 1996.5 424.656 1944.671 407.406 1941.419 406.185 1940.102 403.48 1938.915 401.044 1938.862 390.774 1939.748 335.555 1940.443 292.26 1941.167 269.543 1941.914 267.639 1942.846 265.261 1943.496 264.854 1945.767 265.227 1947.27 265.473 1974.375 274.783 2006 285.915 2037.625 297.047 2064.962 306.404 2066.75 306.708 2070 307.262 2070 307.262 2070 285.753 2070 269.758 2069.68 263.983 2068.75 263.224 2068.063 262.663 2033.075 249.928 1991 234.924 1948.925 219.92 1913.088 207.456 1911.363 207.226 1908.226 206.807 1908.226 206.807 1907.614 226.154 1907.277 236.794 1905.619 339.052 1903.929 453.393 1901.384 625.643 1901.084 661.503 1902.179 662.551 1902.906 663.246 1938.15 671.685 1980.5 681.304 2022.85 690.923 2058.962 698.84 2060.75 698.897 Z M1744.398 630.657 C1745.442 630.571 1746.676 629.825 1747.141 629 1747.606 628.175 1774.513 530.075 1806.934 411 1862.755 205.985 1865.787 194.419 1864.104 192.972 1863.127 192.132 1855.219 188.796 1846.532 185.56 1835.3 181.375 1830.304 179.95 1829.234 180.624 1828.263 181.237 1814.846 229.51 1791.32 317.036 1771.294 391.541 1752.235 462.85 1748.967 475.5 1745.699 488.15 1741.181 507.275 1738.926 518 1736.672 528.725 1734.179 539.863 1733.386 542.75 1732.593 545.637 1731.568 548 1731.109 548 1730.649 548 1729.759 545.412 1729.131 542.25 1728.502 539.088 1726.419 526.15 1724.5 513.5 1722.582 500.85 1719.263 481.275 1717.125 470 1714.987 458.725 1698.539 375.925 1680.575 286 1662.611 196.075 1647.37 120.707 1646.706 118.515 1645.5 114.529 1645.5 114.529 1630 108.713 1621.475 105.514 1612.971 102.625 1611.103 102.294 1607.705 101.69 1607.705 101.69 1608.242 106.095 1608.538 108.518 1630.432 222.775 1656.896 360 1683.361 497.225 1705.48 611.803 1706.05 614.618 1706.62 617.434 1707.63 620.469 1708.294 621.365 1709.058 622.395 1715.55 624.426 1726 626.903 1735.075 629.054 1743.354 630.743 1744.398 630.657 Z" fill="#646464" fill-opacity="1" stroke="none"/>
 <path id="Form-9" d="M242.5 1610.5 C179.725 1610.82 160.375 1611.279 159 1611.726 156.826 1612.433 156.461 1613.206 156.202 1617.655 156.038 1620.469 156.609 1625.814 157.471 1629.533 158.334 1633.251 160.44 1638.922 162.152 1642.134 163.864 1645.346 167.47 1650.036 170.164 1652.557 172.859 1655.078 177.425 1658.221 180.311 1659.542 183.197 1660.864 188.921 1662.433 193.029 1663.029 197.218 1663.638 204.014 1663.818 208.5 1663.441 212.9 1663.071 219.875 1661.862 224 1660.755 228.125 1659.648 232.962 1658.526 234.75 1658.261 237.809 1657.809 238 1657.96 238 1660.819 238 1662.49 237.352 1664.505 236.559 1665.298 235.767 1666.09 231.605 1667.733 227.309 1668.949 221.382 1670.627 216.006 1671.257 205 1671.562 195.349 1671.828 188.661 1671.533 185 1670.677 181.975 1669.969 176.8 1668.072 173.5 1666.459 170.06 1664.779 164.826 1660.887 161.233 1657.339 157.135 1653.293 153.94 1648.96 152.004 1644.822 150.375 1641.342 148.264 1635.345 147.312 1631.497 146.174 1626.897 145.567 1620.39 145.541 1612.5 145.518 1605.9 146.068 1597.195 146.763 1593.155 147.458 1589.115 149.006 1583.49 150.203 1580.655 151.401 1577.82 154.134 1572.689 156.278 1569.253 158.422 1565.817 161.957 1561.481 164.134 1559.618 166.31 1557.754 170.663 1554.859 173.806 1553.184 176.95 1551.509 182.464 1549.596 186.06 1548.933 189.682 1548.266 196.369 1547.95 201.05 1548.224 206.419 1548.54 211.688 1549.56 215.5 1551.023 219.9 1552.711 223.171 1554.995 227.767 1559.587 231.858 1563.675 235.085 1568.094 237.059 1572.312 238.722 1575.866 240.759 1582.091 241.586 1586.144 242.444 1590.354 242.963 1597.155 242.794 1602.007 L242.5 1610.5 Z M418.54 1671.932 C413.568 1671.895 407.475 1671.303 405 1670.616 402.525 1669.93 398.062 1668.114 395.083 1666.582 392.103 1665.05 387.271 1661.533 384.345 1658.765 380.084 1654.735 378.746 1653.966 377.621 1654.899 376.849 1655.54 375.905 1658.146 375.524 1660.691 375.142 1663.235 374.417 1666.402 373.913 1667.728 373.253 1669.464 372.367 1670.049 370.748 1669.819 368.5 1669.5 368.5 1669.5 368.5 1583.5 368.5 1497.5 368.5 1497.5 373 1497.5 377.5 1497.5 377.5 1497.5 377.501 1530 377.501 1547.875 377.743 1563.114 378.039 1563.864 378.334 1564.614 379.271 1565.064 380.121 1564.864 380.971 1564.664 383.046 1562.925 384.734 1561 386.421 1559.075 390.209 1556.057 393.151 1554.292 396.093 1552.528 401.182 1550.391 404.46 1549.542 407.738 1548.694 414.506 1548 419.5 1548 424.494 1548 431.228 1548.69 434.465 1549.533 437.702 1550.376 442.598 1552.289 445.345 1553.783 448.092 1555.277 452.274 1558.434 454.639 1560.798 457.004 1563.162 460.536 1568.337 462.49 1572.298 464.443 1576.259 466.774 1583.1 467.671 1587.5 468.712 1592.61 469.307 1600.558 469.317 1609.5 469.328 1618.367 468.76 1626.271 467.77 1631.059 466.91 1635.216 464.705 1641.741 462.87 1645.559 460.741 1649.987 457.347 1654.713 453.497 1658.612 450.177 1661.974 445.571 1665.688 443.261 1666.867 440.951 1668.045 436.478 1669.682 433.32 1670.505 430.128 1671.336 423.568 1671.97 418.54 1671.932 Z M532.54 1671.898 C527.568 1671.841 522.15 1671.459 520.5 1671.047 518.85 1670.636 515.84 1669.591 513.81 1668.726 511.781 1667.86 508.157 1665.342 505.756 1663.129 503.356 1660.917 500.291 1656.756 498.946 1653.884 496.871 1649.454 496.5 1647.171 496.5 1638.818 496.5 1629.892 496.771 1628.456 499.403 1623.428 501 1620.378 504.176 1616.351 506.46 1614.479 508.744 1612.607 513.513 1609.733 517.057 1608.091 520.601 1606.449 527.325 1604.433 532 1603.61 536.675 1602.787 547.796 1601.813 556.712 1601.445 566.487 1601.041 573.562 1600.31 574.529 1599.603 575.411 1598.958 576.376 1596.618 576.673 1594.404 576.97 1592.19 576.699 1587.065 576.07 1583.016 575.358 1578.422 573.719 1573.367 571.714 1569.577 569.06 1564.559 567.59 1563.012 563.28 1560.702 560.408 1559.164 555.458 1557.476 552.28 1556.952 548.452 1556.32 543.798 1556.359 538.5 1557.067 534.1 1557.655 527.35 1559.288 523.5 1560.696 519.65 1562.105 515.166 1563.312 513.536 1563.378 511.151 1563.476 510.38 1562.96 509.588 1560.734 508.839 1558.633 508.951 1557.627 510.051 1556.546 510.848 1555.764 514.959 1553.97 519.187 1552.559 523.414 1551.148 530.183 1549.479 534.229 1548.849 538.275 1548.22 545.881 1547.93 551.13 1548.205 558.585 1548.595 561.932 1549.28 566.42 1551.334 569.579 1552.781 573.641 1555.441 575.445 1557.245 577.25 1559.05 579.95 1562.941 581.445 1565.892 583.29 1569.533 584.489 1574.031 585.173 1579.879 585.752 1584.835 586.036 1605.72 585.84 1629 585.5 1669.5 585.5 1669.5 582.537 1669.5 580.073 1669.5 579.453 1668.995 578.851 1666.5 578.452 1664.85 577.76 1661.481 577.312 1659.013 576.742 1655.877 575.952 1654.422 574.685 1654.178 573.575 1653.964 570.865 1655.727 567.687 1658.729 564.834 1661.425 560.475 1664.815 558 1666.263 555.525 1667.711 550.818 1669.594 547.54 1670.448 544.058 1671.355 537.822 1671.957 532.54 1671.898 Z M808.156 1671.7 C799.401 1671.927 794.882 1671.565 790 1670.245 786.425 1669.278 781.46 1667.29 778.966 1665.828 776.472 1664.365 772.344 1660.937 769.794 1658.211 767.243 1655.484 763.765 1650.496 762.064 1647.126 760.363 1643.757 758.329 1638.188 757.544 1634.75 756.758 1631.313 755.814 1624.225 755.445 1619 755.052 1613.442 755.275 1604.728 755.981 1598 756.645 1591.675 758.006 1584.154 759.005 1581.287 760.005 1578.42 761.875 1573.953 763.161 1571.359 764.448 1568.765 767.673 1564.259 770.328 1561.346 773.313 1558.071 777.513 1554.888 781.328 1553.01 784.723 1551.339 790.224 1549.465 793.553 1548.846 796.957 1548.213 804.178 1547.941 810.053 1548.224 816.855 1548.551 822.07 1549.366 825 1550.56 827.475 1551.568 831.636 1553.921 834.247 1555.789 836.858 1557.656 839.927 1560.492 841.065 1562.092 842.204 1563.691 844 1565 845.055 1565 846.903 1565 846.983 1563.765 847.237 1531.25 847.5 1497.5 847.5 1497.5 851.5 1497.5 855.5 1497.5 855.5 1497.5 855.756 1582.944 855.929 1640.736 855.677 1668.723 854.978 1669.422 854.267 1670.133 853.411 1670.118 852.234 1669.376 851.293 1668.782 850.166 1666.317 849.729 1663.898 849.293 1661.479 848.712 1658.468 848.438 1657.207 848.164 1655.946 847.292 1654.665 846.499 1654.361 845.622 1654.025 843.176 1655.739 840.256 1658.737 837.284 1661.789 832.477 1665.138 827.633 1667.532 820.092 1671.259 819.393 1671.408 808.156 1671.7 Z M3150.5 1589.5 C3150.5 1662.5 3150.5 1662.5 3146.869 1664.275 3144.872 1665.252 3138.347 1667.193 3132.369 1668.589 3123.477 1670.665 3118.225 1671.203 3103.5 1671.542 3090.277 1671.847 3083.422 1671.564 3077.669 1670.474 3073.362 1669.658 3066.526 1667.612 3062.478 1665.926 3058.43 1664.241 3051.979 1660.658 3048.142 1657.964 3044.306 1655.27 3039.166 1650.463 3036.72 1647.283 3034.274 1644.102 3030.647 1638.269 3028.66 1634.321 3026.672 1630.373 3024.125 1623.848 3022.998 1619.821 3021.872 1615.794 3020.499 1606.673 3019.947 1599.551 3019.247 1590.526 3019.273 1583.606 3020.032 1576.713 3020.63 1571.273 3022.039 1563.825 3023.162 1560.161 3024.285 1556.498 3026.777 1550.351 3028.699 1546.502 3030.621 1542.653 3033.692 1537.478 3035.522 1535.002 3037.353 1532.526 3040.797 1528.643 3043.176 1526.374 3045.554 1524.104 3049.754 1520.729 3052.509 1518.874 3055.264 1517.018 3060.779 1514.001 3064.765 1512.169 3068.75 1510.337 3076.396 1507.928 3081.755 1506.816 3090.023 1505.1 3093.849 1504.877 3107 1505.346 3115.525 1505.649 3125.836 1506.63 3129.914 1507.524 3133.992 1508.419 3139.729 1510.049 3142.664 1511.147 3147.003 1512.771 3148 1513.577 3148 1515.461 3148 1516.736 3147.193 1518.775 3146.207 1519.993 3144.414 1522.207 3144.414 1522.207 3134.957 1519.028 3129.647 1517.243 3120.457 1515.181 3114 1514.326 3104.69 1513.093 3100.625 1513.014 3092.657 1513.908 3087.243 1514.516 3079.468 1516.136 3075.378 1517.509 3071.289 1518.882 3065.098 1521.802 3061.621 1523.998 3058.144 1526.193 3053.018 1530.402 3050.23 1533.351 3047.441 1536.299 3043.609 1541.139 3041.713 1544.106 3039.818 1547.073 3037.077 1552.802 3035.623 1556.838 3034.169 1560.874 3032.309 1568.02 3031.49 1572.719 3030.67 1577.418 3030.002 1584.691 3030.004 1588.881 3030.006 1593.071 3030.698 1600.756 3031.542 1605.958 3032.386 1611.161 3034.135 1618.463 3035.43 1622.187 3036.725 1625.91 3039.039 1631.104 3040.572 1633.728 3042.105 1636.353 3045.843 1641.109 3048.878 1644.298 3051.912 1647.486 3056.898 1651.616 3059.957 1653.474 3063.016 1655.332 3068.959 1658.007 3073.163 1659.419 3077.855 1660.994 3085.382 1662.433 3092.653 1663.147 3102.662 1664.129 3106.449 1664.056 3117.066 1662.675 3123.977 1661.776 3131.627 1660.35 3134.066 1659.506 3136.505 1658.661 3139.288 1657.027 3140.25 1655.874 3141.817 1653.998 3142 1651.09 3142 1628.08 3142 1607.481 3141.719 1601.997 3140.582 1600.441 3139.271 1598.645 3137.46 1598.463 3116.332 1598 3093.5 1597.5 3093.5 1597.5 3093.5 1593.5 3093.5 1589.5 3093.5 1589.5 3122 1589.5 L3150.5 1589.5 Z M3281.5 1610.5 C3218.725 1610.82 3199.375 1611.279 3198 1611.726 3195.826 1612.433 3195.461 1613.206 3195.202 1617.655 3195.038 1620.469 3195.609 1625.814 3196.471 1629.533 3197.334 1633.251 3199.44 1638.922 3201.152 1642.134 3202.864 1645.346 3206.469 1650.036 3209.164 1652.557 3211.859 1655.078 3216.425 1658.221 3219.311 1659.542 3222.198 1660.864 3227.921 1662.433 3232.03 1663.029 3236.218 1663.638 3243.014 1663.818 3247.5 1663.441 3251.9 1663.071 3258.875 1661.862 3263 1660.755 3267.125 1659.648 3271.962 1658.526 3273.75 1658.261 3276.809 1657.809 3277 1657.96 3277 1660.819 3277 1662.49 3276.352 1664.505 3275.56 1665.298 3274.767 1666.09 3270.605 1667.733 3266.31 1668.949 3260.382 1670.627 3255.006 1671.257 3244 1671.562 3234.349 1671.828 3227.661 1671.533 3224 1670.677 3220.975 1669.969 3215.8 1668.072 3212.5 1666.459 3209.06 1664.779 3203.826 1660.887 3200.233 1657.339 3196.135 1653.293 3192.94 1648.96 3191.004 1644.822 3189.375 1641.342 3187.264 1635.345 3186.312 1631.497 3185.174 1626.897 3184.567 1620.39 3184.541 1612.5 3184.518 1605.9 3185.068 1597.195 3185.763 1593.155 3186.458 1589.115 3188.006 1583.49 3189.203 1580.655 3190.401 1577.82 3193.135 1572.689 3195.278 1569.253 3197.422 1565.817 3200.957 1561.481 3203.134 1559.618 3205.31 1557.754 3209.663 1554.859 3212.806 1553.184 3215.95 1551.509 3221.464 1549.596 3225.06 1548.933 3228.682 1548.266 3235.369 1547.95 3240.05 1548.224 3245.419 1548.54 3250.688 1549.56 3254.5 1551.023 3258.9 1552.711 3262.171 1554.995 3266.767 1559.587 3270.858 1563.675 3274.085 1568.094 3276.059 1572.312 3277.722 1575.866 3279.759 1582.091 3280.586 1586.144 3281.444 1590.354 3281.963 1597.155 3281.794 1602.007 L3281.5 1610.5 Z M3368.54 1671.932 C3363.568 1671.895 3357.475 1671.303 3355 1670.616 3352.525 1669.93 3348.062 1668.114 3345.083 1666.582 3342.103 1665.05 3337.271 1661.533 3334.345 1658.765 3330.084 1654.735 3328.746 1653.966 3327.621 1654.899 3326.849 1655.54 3325.905 1658.146 3325.524 1660.691 3325.142 1663.235 3324.417 1666.402 3323.913 1667.728 3323.253 1669.464 3322.367 1670.049 3320.748 1669.819 3318.5 1669.5 3318.5 1669.5 3318.5 1583.5 3318.5 1497.5 3318.5 1497.5 3323 1497.5 3327.5 1497.5 3327.5 1497.5 3327.501 1530 3327.501 1547.875 3327.743 1563.114 3328.039 1563.864 3328.334 1564.614 3329.271 1565.064 3330.121 1564.864 3330.971 1564.664 3333.046 1562.925 3334.734 1561 3336.421 1559.075 3340.209 1556.057 3343.151 1554.292 3346.093 1552.528 3351.182 1550.391 3354.46 1549.542 3357.738 1548.694 3364.506 1548 3369.5 1548 3374.494 1548 3381.228 1548.69 3384.465 1549.533 3387.702 1550.376 3392.598 1552.289 3395.345 1553.783 3398.092 1555.277 3402.274 1558.434 3404.639 1560.798 3407.004 1563.162 3410.536 1568.337 3412.49 1572.298 3414.443 1576.259 3416.774 1583.1 3417.671 1587.5 3418.712 1592.61 3419.307 1600.558 3419.317 1609.5 3419.327 1618.367 3418.76 1626.271 3417.77 1631.059 3416.91 1635.216 3414.705 1641.741 3412.87 1645.559 3410.741 1649.987 3407.347 1654.713 3403.497 1658.612 3400.177 1661.974 3395.571 1665.688 3393.261 1666.867 3390.951 1668.045 3386.478 1669.682 3383.32 1670.505 3380.127 1671.336 3373.568 1671.97 3368.54 1671.932 Z M3482.54 1671.898 C3477.568 1671.841 3472.15 1671.459 3470.5 1671.047 3468.85 1670.636 3465.84 1669.591 3463.81 1668.726 3461.781 1667.86 3458.157 1665.342 3455.756 1663.129 3453.356 1660.917 3450.291 1656.756 3448.946 1653.884 3446.871 1649.454 3446.5 1647.171 3446.5 1638.818 3446.5 1629.892 3446.771 1628.456 3449.403 1623.428 3451 1620.378 3454.176 1616.351 3456.46 1614.479 3458.744 1612.607 3463.513 1609.733 3467.057 1608.091 3470.601 1606.449 3477.325 1604.433 3482 1603.61 3486.675 1602.787 3497.796 1601.813 3506.712 1601.445 3516.487 1601.041 3523.562 1600.31 3524.529 1599.603 3525.411 1598.958 3526.376 1596.618 3526.673 1594.404 3526.97 1592.19 3526.699 1587.065 3526.07 1583.016 3525.358 1578.422 3523.719 1573.367 3521.714 1569.577 3519.06 1564.559 3517.59 1563.012 3513.28 1560.702 3510.408 1559.164 3505.458 1557.476 3502.28 1556.952 3498.452 1556.32 3493.798 1556.359 3488.5 1557.067 3484.1 1557.655 3477.35 1559.288 3473.5 1560.696 3469.65 1562.105 3465.166 1563.312 3463.536 1563.378 3461.151 1563.476 3460.38 1562.96 3459.588 1560.734 3458.839 1558.633 3458.951 1557.627 3460.052 1556.546 3460.848 1555.764 3464.959 1553.97 3469.187 1552.559 3473.414 1551.148 3480.183 1549.479 3484.229 1548.849 3488.275 1548.22 3495.881 1547.93 3501.13 1548.205 3508.585 1548.595 3511.932 1549.28 3516.419 1551.334 3519.579 1552.781 3523.641 1555.441 3525.446 1557.245 3527.25 1559.05 3529.95 1562.941 3531.446 1565.892 3533.29 1569.533 3534.489 1574.031 3535.173 1579.879 3535.752 1584.835 3536.036 1605.72 3535.84 1629 3535.5 1669.5 3535.5 1669.5 3532.537 1669.5 3530.073 1669.5 3529.453 1668.995 3528.851 1666.5 3528.452 1664.85 3527.76 1661.481 3527.312 1659.013 3526.742 1655.877 3525.952 1654.422 3524.685 1654.178 3523.575 1653.964 3520.865 1655.727 3517.687 1658.729 3514.834 1661.425 3510.475 1664.815 3508 1666.263 3505.525 1667.711 3500.818 1669.594 3497.54 1670.448 3494.058 1671.355 3487.822 1671.957 3482.54 1671.898 Z M3615.566 1671.915 C3610.58 1671.868 3604.198 1671.271 3601.384 1670.588 3598.569 1669.905 3594.229 1668.152 3591.739 1666.693 3589.249 1665.233 3586.013 1662.616 3584.55 1660.877 3583.087 1659.138 3580.769 1655.503 3579.399 1652.8 3577.987 1650.015 3576.456 1644.552 3575.865 1640.193 3575.233 1635.522 3574.956 1616.392 3575.162 1591.5 3575.5 1550.5 3575.5 1550.5 3579.5 1550.5 3583.5 1550.5 3583.5 1550.5 3584.048 1594.5 3584.516 1632.165 3584.839 1639.232 3586.288 1643.586 3587.219 1646.384 3589.331 1650.537 3590.981 1652.815 3592.721 1655.217 3596.042 1658.001 3598.887 1659.443 3601.585 1660.81 3606.807 1662.41 3610.492 1662.999 3615.292 1663.766 3619.504 1663.758 3625.346 1662.971 3629.831 1662.367 3635.804 1660.829 3638.62 1659.552 3641.436 1658.275 3645.526 1655.616 3647.708 1653.645 3650.07 1651.511 3652.935 1647.315 3654.786 1643.28 3656.78 1638.933 3658.3 1633.45 3659.022 1628 3659.642 1623.325 3660.228 1603.975 3660.324 1585 3660.5 1550.5 3660.5 1550.5 3664.5 1550.5 3668.5 1550.5 3668.5 1550.5 3668.5 1610 3668.5 1669.5 3668.5 1669.5 3666.195 1669.827 3664.927 1670.006 3663.279 1669.646 3662.532 1669.026 3661.785 1668.407 3660.871 1665.695 3660.5 1663 3660.129 1660.305 3659.189 1657.572 3658.41 1656.926 3657.275 1655.983 3656.121 1656.556 3652.581 1659.818 3650.154 1662.056 3645.521 1665.222 3642.287 1666.855 3639.053 1668.488 3633.758 1670.313 3630.52 1670.912 3627.282 1671.51 3620.553 1671.962 3615.566 1671.915 Z M3758.156 1671.7 C3749.401 1671.927 3744.882 1671.565 3740 1670.245 3736.425 1669.278 3731.459 1667.29 3728.966 1665.828 3726.472 1664.365 3722.283 1660.871 3719.657 1658.064 3717.031 1655.257 3713.345 1649.706 3711.466 1645.73 3709.587 1641.754 3707.476 1635.125 3706.775 1631 3706.074 1626.875 3705.511 1617.65 3705.524 1610.5 3705.539 1602.573 3706.187 1594.297 3707.184 1589.292 3708.084 1584.777 3710.406 1577.787 3712.344 1573.758 3714.281 1569.729 3717.665 1564.39 3719.863 1561.893 3722.06 1559.397 3726.699 1555.84 3730.171 1553.99 3733.643 1552.139 3738.962 1550.042 3741.992 1549.328 3745.021 1548.615 3751.343 1548.024 3756.04 1548.016 3760.737 1548.007 3767.262 1548.694 3770.54 1549.542 3773.818 1550.391 3778.919 1552.528 3781.876 1554.292 3784.833 1556.057 3788.621 1559.188 3790.294 1561.25 3791.966 1563.313 3794.153 1565 3795.154 1565 3796.872 1565 3796.988 1563.12 3797.237 1531.25 3797.5 1497.5 3797.5 1497.5 3801.5 1497.5 3805.5 1497.5 3805.5 1497.5 3805.756 1582.944 3805.928 1640.736 3805.677 1668.723 3804.978 1669.422 3804.267 1670.133 3803.411 1670.118 3802.234 1669.376 3801.293 1668.782 3800.166 1666.317 3799.729 1663.898 3799.293 1661.479 3798.712 1658.468 3798.438 1657.207 3798.164 1655.946 3797.292 1654.665 3796.499 1654.361 3795.622 1654.025 3793.176 1655.739 3790.256 1658.737 3787.284 1661.789 3782.477 1665.138 3777.633 1667.532 3770.092 1671.259 3769.393 1671.408 3758.156 1671.7 Z M3939.5 1610.5 C3876.725 1610.82 3857.375 1611.279 3856 1611.726 3853.826 1612.433 3853.461 1613.206 3853.202 1617.655 3853.038 1620.469 3853.609 1625.814 3854.471 1629.533 3855.334 1633.251 3857.44 1638.922 3859.152 1642.134 3860.864 1645.346 3864.469 1650.036 3867.164 1652.557 3869.859 1655.078 3874.425 1658.221 3877.311 1659.542 3880.198 1660.864 3885.921 1662.433 3890.03 1663.029 3894.218 1663.638 3901.014 1663.818 3905.5 1663.441 3909.9 1663.071 3916.875 1661.862 3921 1660.755 3925.125 1659.648 3929.962 1658.526 3931.75 1658.261 3934.809 1657.809 3935 1657.96 3935 1660.819 3935 1662.49 3934.352 1664.505 3933.56 1665.298 3932.767 1666.09 3928.605 1667.733 3924.31 1668.949 3918.382 1670.627 3913.006 1671.257 3902 1671.562 3892.349 1671.828 3885.661 1671.533 3882 1670.677 3878.975 1669.969 3873.8 1668.072 3870.5 1666.459 3867.06 1664.779 3861.826 1660.887 3858.233 1657.339 3854.135 1653.293 3850.94 1648.96 3849.004 1644.822 3847.375 1641.342 3845.264 1635.345 3844.312 1631.497 3843.174 1626.897 3842.567 1620.39 3842.541 1612.5 3842.518 1605.9 3843.068 1597.195 3843.763 1593.155 3844.458 1589.115 3846.006 1583.49 3847.203 1580.655 3848.401 1577.82 3851.135 1572.689 3853.278 1569.253 3855.422 1565.817 3858.957 1561.481 3861.134 1559.618 3863.31 1557.754 3867.663 1554.859 3870.806 1553.184 3873.95 1551.509 3879.464 1549.596 3883.06 1548.933 3886.682 1548.266 3893.369 1547.95 3898.05 1548.224 3903.419 1548.54 3908.688 1549.56 3912.5 1551.023 3916.9 1552.711 3920.171 1554.995 3924.767 1559.587 3928.858 1563.675 3932.085 1568.094 3934.059 1572.312 3935.722 1575.866 3937.759 1582.091 3938.586 1586.144 3939.444 1590.354 3939.963 1597.155 3939.794 1602.007 L3939.5 1610.5 Z M64.22 1669.809 C60.035 1670.111 59.898 1670.022 58.076 1665.809 57.051 1663.439 43.711 1627.975 28.433 1587 13.154 1546.025 0.619 1511.6 0.577 1510.5 0.511 1508.785 1.141 1508.5 5 1508.5 9.161 1508.5 9.624 1508.763 11.153 1512 12.061 1513.925 21.226 1538.225 31.518 1566 41.81 1593.775 52.992 1624.369 56.367 1633.987 60.647 1646.186 63 1651.569 64.148 1651.79 65.295 1652.011 66.282 1650.804 67.407 1647.803 68.294 1645.437 80.033 1613.381 93.494 1576.569 106.954 1539.757 118.537 1509.265 119.234 1508.808 119.93 1508.352 122.3 1508.096 124.5 1508.239 127.828 1508.456 128.466 1508.836 128.295 1510.5 128.182 1511.6 115.44 1546.25 99.979 1587.5 84.518 1628.75 71.11 1664.075 70.184 1666 68.697 1669.09 67.998 1669.536 64.22 1669.809 Z M283.241 1669.808 C280.419 1670.012 278.813 1669.675 278.481 1668.808 278.206 1668.089 278.098 1641.175 278.24 1609 278.5 1550.5 278.5 1550.5 281.999 1550.5 285.497 1550.5 285.497 1550.5 286.252 1557 286.668 1560.575 287.239 1564.512 287.523 1565.75 287.806 1566.988 288.613 1568 289.315 1568 290.018 1568 293.345 1564.926 296.709 1561.168 300.539 1556.89 304.908 1553.246 308.397 1551.418 313.686 1548.648 314.6 1548.5 326.432 1548.5 334.569 1548.5 339.3 1548.904 340.061 1549.662 340.87 1550.47 340.936 1551.691 340.278 1553.662 339.332 1556.5 339.332 1556.5 328.216 1556.588 317.822 1556.671 316.677 1556.884 310.602 1559.875 306.741 1561.776 302.532 1564.861 300.227 1567.479 298.094 1569.902 294.938 1574.948 293.213 1578.693 291.488 1582.437 289.577 1588.65 288.966 1592.5 288.337 1596.466 287.778 1614.672 287.678 1634.5 287.5 1669.5 287.5 1669.5 283.241 1669.808 Z M632.241 1669.808 C629.419 1670.012 627.813 1669.675 627.481 1668.808 627.206 1668.089 627.098 1641.175 627.24 1609 627.5 1550.5 627.5 1550.5 630.976 1550.5 633.819 1550.5 634.587 1550.955 635.194 1553 635.602 1554.375 636.188 1557.144 636.495 1559.153 636.803 1561.163 637.718 1563.062 638.529 1563.373 639.413 1563.712 642.08 1562.094 645.191 1559.33 648.045 1556.796 652.796 1553.654 655.748 1552.348 658.701 1551.042 664.128 1549.461 667.808 1548.834 671.562 1548.194 678.89 1547.926 684.5 1548.222 691.23 1548.578 696.331 1549.451 700.101 1550.892 703.182 1552.069 707.554 1554.742 709.817 1556.831 712.189 1559.021 715.255 1563.457 717.055 1567.303 719.419 1572.356 720.421 1576.347 721.18 1583.738 721.737 1589.151 722.031 1610.429 721.842 1631.5 721.5 1669.5 721.5 1669.5 717.5 1669.5 713.5 1669.5 713.5 1669.5 712.866 1626.5 712.46 1598.998 711.809 1581.827 711.058 1578.859 710.413 1576.307 708.448 1571.849 706.692 1568.952 704.424 1565.21 702.053 1562.877 698.5 1560.89 695.531 1559.229 690.589 1557.642 686.331 1556.982 681.123 1556.175 677.019 1556.169 671.331 1556.959 666.846 1557.583 660.907 1559.26 657.432 1560.886 654.094 1562.447 649.763 1565.372 647.808 1567.386 645.852 1569.4 643.108 1573.624 641.71 1576.774 640.311 1579.923 638.649 1585.875 638.015 1590 637.336 1594.414 636.788 1612.311 636.681 1633.5 636.5 1669.5 636.5 1669.5 632.241 1669.808 Z M420 1662.678 C429.208 1662.507 431.194 1662.143 436.142 1659.721 439.244 1658.202 443.604 1654.984 445.829 1652.57 448.054 1650.156 451.032 1645.897 452.446 1643.107 453.86 1640.317 455.688 1635.457 456.508 1632.307 457.559 1628.273 457.997 1621.395 457.988 1609.04 457.98 1597.59 457.512 1589.764 456.639 1586.5 455.903 1583.75 454.093 1579.121 452.615 1576.214 451.138 1573.307 448.376 1569.208 446.477 1567.106 444.578 1565.004 440.206 1561.982 436.762 1560.392 430.912 1557.69 429.678 1557.5 418 1557.503 406.312 1557.506 405.09 1557.695 399.192 1560.416 395.221 1562.247 391.435 1564.971 388.975 1567.766 386.826 1570.208 384.122 1574.732 382.966 1577.819 381.811 1580.907 380.446 1585.647 379.933 1588.353 379.42 1591.059 379 1601.064 379 1610.587 379 1620.11 379.509 1630.286 380.13 1633.201 380.752 1636.115 382.263 1640.774 383.488 1643.554 384.714 1646.333 387.202 1650.299 389.018 1652.368 390.834 1654.436 394.61 1657.303 397.41 1658.738 400.21 1660.173 404.075 1661.69 406 1662.11 407.925 1662.53 414.225 1662.785 420 1662.678 Z M534.145 1662.956 C540.035 1662.986 544.826 1662.371 549.183 1661.025 552.7 1659.939 557.711 1657.533 560.318 1655.68 562.925 1653.826 566.114 1650.879 567.403 1649.131 568.693 1647.383 570.905 1643.376 572.318 1640.226 574.389 1635.61 575.026 1632.206 575.594 1622.699 576.018 1615.603 575.922 1610.522 575.354 1609.954 574.759 1609.359 567.366 1609.366 555.454 1609.972 544.926 1610.508 533.936 1611.614 530.733 1612.46 527.561 1613.298 522.836 1615.07 520.233 1616.398 517.63 1617.727 514.286 1620.093 512.803 1621.657 511.32 1623.221 509.407 1626.173 508.553 1628.218 507.636 1630.413 507 1634.891 507 1639.152 507 1644.442 507.561 1647.528 509.102 1650.711 510.259 1653.1 512.733 1656.22 514.6 1657.644 516.468 1659.069 519.684 1660.837 521.748 1661.573 523.812 1662.31 529.39 1662.932 534.145 1662.956 Z M808.5 1662.685 C817.76 1662.431 820.377 1661.981 825.046 1659.841 828.096 1658.442 832.182 1655.901 834.127 1654.193 836.169 1652.401 839.06 1648.058 840.968 1643.917 842.877 1639.776 844.695 1633.737 845.27 1629.623 845.818 1625.705 846.051 1614.625 845.787 1605 845.451 1592.704 844.826 1586.013 843.686 1582.5 842.793 1579.75 840.586 1575.042 838.781 1572.039 836.977 1569.035 833.622 1565.262 831.326 1563.653 828.301 1561.533 826.649 1560.959 825.326 1561.569 824.322 1562.032 822.939 1562.576 822.253 1562.778 821.567 1562.98 820.59 1562.051 820.081 1560.713 819.465 1559.093 818.088 1558.068 815.953 1557.641 814.191 1557.288 809.754 1557 806.093 1557 802.432 1557 797.138 1557.596 794.328 1558.325 791.519 1559.053 786.978 1561.089 784.237 1562.848 781.337 1564.709 777.803 1568.232 775.787 1571.273 773.882 1574.148 771.384 1579.012 770.238 1582.083 769.091 1585.154 767.668 1591.149 767.076 1595.406 766.484 1599.662 766 1606.905 766 1611.5 766 1616.095 766.476 1623.375 767.058 1627.678 767.666 1632.167 769.322 1638.109 770.946 1641.623 772.503 1644.991 775.484 1649.636 777.57 1651.946 779.656 1654.255 783.194 1657.086 785.432 1658.237 787.669 1659.388 791.3 1660.927 793.5 1661.658 796.132 1662.533 801.261 1662.884 808.5 1662.685 Z M3370 1662.678 C3379.208 1662.507 3381.194 1662.143 3386.142 1659.721 3389.244 1658.202 3393.604 1654.984 3395.829 1652.57 3398.054 1650.156 3401.032 1645.897 3402.446 1643.107 3403.86 1640.317 3405.688 1635.457 3406.508 1632.307 3407.559 1628.273 3407.997 1621.395 3407.988 1609.04 3407.98 1597.59 3407.512 1589.764 3406.639 1586.5 3405.903 1583.75 3404.093 1579.121 3402.615 1576.214 3401.138 1573.307 3398.376 1569.208 3396.477 1567.106 3394.578 1565.004 3390.206 1561.982 3386.762 1560.392 3380.912 1557.69 3379.678 1557.5 3368 1557.503 3356.313 1557.506 3355.09 1557.695 3349.192 1560.416 3345.221 1562.247 3341.435 1564.971 3338.975 1567.766 3336.825 1570.208 3334.122 1574.732 3332.966 1577.819 3331.811 1580.907 3330.446 1585.647 3329.933 1588.353 3329.42 1591.059 3329 1601.064 3329 1610.587 3329 1620.11 3329.509 1630.286 3330.13 1633.201 3330.752 1636.115 3332.263 1640.774 3333.488 1643.554 3334.714 1646.333 3337.202 1650.299 3339.018 1652.368 3340.834 1654.436 3344.61 1657.303 3347.41 1658.738 3350.209 1660.173 3354.075 1661.69 3356 1662.11 3357.925 1662.53 3364.225 1662.785 3370 1662.678 Z M3484.145 1662.956 C3490.035 1662.986 3494.826 1662.371 3499.183 1661.025 3502.7 1659.939 3507.744 1657.51 3510.391 1655.628 3513.039 1653.745 3516.744 1650.04 3518.626 1647.394 3520.507 1644.748 3522.735 1640.314 3523.576 1637.541 3524.417 1634.769 3525.375 1627.641 3525.705 1621.702 3526.057 1615.36 3525.913 1610.513 3525.356 1609.956 3524.758 1609.358 3517.403 1609.364 3505.454 1609.972 3494.927 1610.508 3483.936 1611.614 3480.733 1612.46 3477.562 1613.298 3472.836 1615.07 3470.233 1616.398 3467.63 1617.727 3464.286 1620.093 3462.803 1621.657 3461.32 1623.221 3459.407 1626.173 3458.553 1628.218 3457.636 1630.413 3457 1634.891 3457 1639.152 3457 1644.442 3457.561 1647.528 3459.102 1650.711 3460.259 1653.1 3462.733 1656.22 3464.6 1657.644 3466.468 1659.069 3469.684 1660.837 3471.748 1661.573 3473.812 1662.31 3479.39 1662.932 3484.145 1662.956 Z M3758.5 1662.685 C3767.76 1662.431 3770.377 1661.981 3775.046 1659.841 3778.096 1658.442 3782.182 1655.901 3784.127 1654.193 3786.12 1652.443 3789.041 1648.099 3790.821 1644.238 3792.557 1640.47 3794.433 1634.989 3794.989 1632.057 3795.545 1629.126 3795.993 1619.026 3795.985 1609.614 3795.975 1598.057 3795.49 1590.464 3794.492 1586.231 3793.679 1582.783 3791.824 1577.614 3790.37 1574.744 3788.916 1571.874 3786.25 1568.05 3784.446 1566.245 3782.641 1564.441 3778.54 1561.735 3775.333 1560.232 3769.954 1557.713 3768.527 1557.5 3757 1557.5 3745.424 1557.5 3744.062 1557.705 3738.569 1560.278 3735.307 1561.805 3730.947 1564.832 3728.881 1567.004 3726.815 1569.176 3723.771 1573.789 3722.117 1577.255 3720.463 1580.72 3718.638 1585.568 3718.062 1588.028 3717.486 1590.488 3716.72 1597.953 3716.36 1604.619 3715.955 1612.113 3716.158 1620.318 3716.893 1626.119 3717.681 1632.34 3719.04 1637.563 3720.929 1641.623 3722.495 1644.991 3725.484 1649.636 3727.57 1651.946 3729.656 1654.255 3733.194 1657.086 3735.432 1658.237 3737.669 1659.388 3741.3 1660.927 3743.5 1661.658 3746.132 1662.533 3751.261 1662.884 3758.5 1662.685 Z M194.257 1603 C215.695 1603 228.842 1602.62 230.066 1601.965 231.575 1601.157 232 1599.85 232 1596.014 232 1593.31 231.494 1588.714 230.875 1585.799 230.256 1582.885 228.458 1577.93 226.88 1574.788 225.301 1571.647 222.481 1567.548 220.613 1565.68 218.745 1563.812 215.03 1561.207 212.358 1559.892 208.163 1557.826 206.057 1557.5 196.919 1557.5 187.744 1557.5 185.617 1557.832 180.919 1560 177.938 1561.375 173.556 1564.274 171.179 1566.443 168.803 1568.611 165.721 1572.326 164.331 1574.698 162.941 1577.07 160.953 1581.25 159.913 1583.987 158.873 1586.725 157.722 1591.515 157.356 1594.632 156.788 1599.463 156.962 1600.499 158.536 1601.65 160 1602.72 167.396 1603 194.257 1603 Z M3233.257 1603 C3254.695 1603 3267.842 1602.62 3269.066 1601.965 3270.575 1601.157 3271 1599.85 3271 1596.014 3271 1593.31 3270.494 1588.714 3269.875 1585.799 3269.256 1582.885 3267.458 1577.93 3265.88 1574.788 3264.301 1571.647 3261.481 1567.548 3259.613 1565.68 3257.745 1563.812 3254.03 1561.207 3251.358 1559.892 3247.163 1557.826 3245.057 1557.5 3235.919 1557.5 3226.744 1557.5 3224.617 1557.832 3219.919 1560 3216.938 1561.375 3212.556 1564.274 3210.179 1566.443 3207.803 1568.611 3204.721 1572.326 3203.331 1574.698 3201.941 1577.07 3199.953 1581.25 3198.913 1583.987 3197.873 1586.725 3196.722 1591.515 3196.355 1594.632 3195.788 1599.463 3195.962 1600.499 3197.536 1601.65 3199 1602.72 3206.396 1603 3233.257 1603 Z M3891.5 1603 C3918.945 1603 3925.987 1602.73 3927.507 1601.619 3929.273 1600.327 3929.32 1599.667 3928.223 1591.47 3927.482 1585.935 3925.989 1580.437 3924.172 1576.554 3922.59 1573.172 3919.911 1568.829 3918.219 1566.903 3916.528 1564.976 3912.742 1562.185 3909.808 1560.7 3905.02 1558.277 3903.394 1558 3893.986 1558.001 3884.37 1558.001 3882.964 1558.255 3877.042 1561.057 3873.49 1562.737 3868.99 1565.789 3867.042 1567.839 3865.094 1569.89 3862.078 1574.252 3860.34 1577.533 3858.602 1580.815 3856.376 1587.266 3855.394 1591.87 3853.655 1600.02 3853.657 1600.276 3855.495 1601.62 3857.012 1602.729 3864.07 1603 3891.5 1603 Z M3473.098 1524 C3471.565 1524 3469.565 1523.177 3468.655 1522.171 3467.578 1520.981 3467 1518.591 3467 1515.326 3467 1511.737 3467.52 1509.839 3468.829 1508.655 3469.834 1507.745 3471.834 1507 3473.272 1507 3474.84 1507 3476.51 1507.889 3477.443 1509.223 3478.3 1510.445 3479 1513.27 3479 1515.5 3479 1517.73 3478.3 1520.555 3477.443 1521.777 3476.468 1523.171 3474.846 1524 3473.098 1524 Z M3515.655 1524 C3514.365 1524 3512.565 1523.177 3511.655 1522.171 3510.57 1520.973 3510 1518.585 3510 1515.243 3510 1511.94 3510.554 1509.589 3511.572 1508.571 3512.436 1507.707 3514.236 1507 3515.572 1507 3516.907 1507 3518.9 1507.9 3520 1509 3521.407 1510.407 3522 1512.333 3522 1515.5 3522 1518.667 3521.407 1520.593 3520 1522 3518.9 1523.1 3516.945 1524 3515.655 1524 Z M4125.5 1610.5 C4062.725 1610.82 4043.375 1611.279 4042 1611.726 4039.826 1612.433 4039.461 1613.206 4039.202 1617.655 4039.038 1620.469 4039.609 1625.814 4040.471 1629.533 4041.334 1633.251 4043.44 1638.922 4045.152 1642.134 4046.864 1645.346 4050.47 1650.036 4053.165 1652.557 4055.859 1655.078 4060.425 1658.221 4063.312 1659.542 4066.197 1660.864 4071.92 1662.433 4076.029 1663.029 4080.218 1663.638 4087.014 1663.818 4091.5 1663.441 4095.9 1663.071 4102.875 1661.862 4107 1660.755 4111.125 1659.648 4115.962 1658.526 4117.75 1658.261 4120.809 1657.809 4121 1657.96 4121 1660.819 4121 1662.49 4120.352 1664.505 4119.56 1665.298 4118.767 1666.09 4114.604 1667.733 4110.31 1668.949 4104.382 1670.627 4099.005 1671.257 4088 1671.562 4078.349 1671.828 4071.661 1671.533 4068 1670.677 4064.975 1669.969 4059.8 1668.072 4056.5 1666.459 4053.06 1664.779 4047.826 1660.887 4044.233 1657.339 4040.135 1653.293 4036.94 1648.96 4035.004 1644.822 4033.375 1641.342 4031.264 1635.345 4030.312 1631.497 4029.174 1626.897 4028.567 1620.39 4028.541 1612.5 4028.518 1605.9 4029.068 1597.195 4029.763 1593.155 4030.458 1589.115 4032.006 1583.49 4033.203 1580.655 4034.401 1577.82 4037.134 1572.689 4039.278 1569.253 4041.422 1565.817 4044.957 1561.481 4047.134 1559.618 4049.311 1557.754 4053.663 1554.859 4056.806 1553.184 4059.95 1551.509 4065.464 1549.596 4069.06 1548.933 4072.682 1548.266 4079.369 1547.95 4084.05 1548.224 4089.418 1548.54 4094.688 1549.56 4098.5 1551.023 4102.9 1552.711 4106.171 1554.995 4110.767 1559.587 4114.858 1563.675 4118.085 1568.094 4120.059 1572.312 4121.722 1575.866 4123.759 1582.091 4124.586 1586.144 4125.444 1590.354 4125.962 1597.155 4125.794 1602.007 L4125.5 1610.5 Z M4167.073 1672 C4164.021 1672 4162.683 1671.413 4161.073 1669.365 4159.639 1667.543 4159 1665.271 4159 1662 4159 1658.729 4159.639 1656.457 4161.073 1654.635 4162.683 1652.587 4164.021 1652 4167.073 1652 4169.667 1652 4171.679 1652.679 4173 1654 4174.556 1655.556 4175 1657.333 4175 1662 4175 1666.667 4174.556 1668.444 4173 1670 4171.679 1671.321 4169.667 1672 4167.073 1672 Z M4355.073 1672 C4352.021 1672 4350.683 1671.413 4349.073 1669.365 4347.639 1667.543 4347 1665.271 4347 1662 4347 1658.729 4347.639 1656.457 4349.073 1654.635 4350.683 1652.587 4352.021 1652 4355.073 1652 4357.667 1652 4359.679 1652.679 4361 1654 4362.556 1655.556 4363 1657.333 4363 1662 4363 1666.667 4362.556 1668.444 4361 1670 4359.679 1671.321 4357.667 1672 4355.073 1672 Z M4261.22 1669.809 C4257.035 1670.111 4256.898 1670.022 4255.076 1665.809 4254.051 1663.439 4240.711 1627.975 4225.433 1587 4210.154 1546.025 4197.619 1511.6 4197.577 1510.5 4197.511 1508.785 4198.141 1508.5 4202 1508.5 4206.162 1508.5 4206.625 1508.763 4208.152 1512 4209.062 1513.925 4218.226 1538.225 4228.518 1566 4238.811 1593.775 4249.992 1624.369 4253.367 1633.987 4257.647 1646.186 4260 1651.569 4261.148 1651.79 4262.295 1652.011 4263.282 1650.804 4264.407 1647.803 4265.294 1645.437 4277.033 1613.381 4290.494 1576.569 4303.954 1539.757 4315.537 1509.265 4316.234 1508.808 4316.93 1508.352 4319.3 1508.096 4321.5 1508.239 4324.828 1508.456 4325.466 1508.836 4325.295 1510.5 4325.183 1511.6 4312.44 1546.25 4296.979 1587.5 4281.518 1628.75 4268.11 1664.075 4267.184 1666 4265.697 1669.09 4264.998 1669.536 4261.22 1669.809 Z M4077.5 1603 C4104.945 1603 4111.987 1602.73 4113.507 1601.619 4115.273 1600.327 4115.319 1599.667 4114.223 1591.47 4113.482 1585.935 4111.989 1580.437 4110.172 1576.554 4108.59 1573.172 4105.911 1568.829 4104.219 1566.903 4102.528 1564.976 4098.743 1562.185 4095.808 1560.7 4091.02 1558.277 4089.394 1558 4079.986 1558.001 4070.37 1558.001 4068.964 1558.255 4063.042 1561.057 4059.49 1562.737 4054.99 1565.789 4053.042 1567.839 4051.094 1569.89 4048.078 1574.252 4046.34 1577.533 4044.602 1580.815 4042.376 1587.266 4041.394 1591.87 4039.655 1600.02 4039.657 1600.276 4041.495 1601.62 4043.012 1602.729 4050.07 1603 4077.5 1603 Z" fill="#646464" fill-opacity="1" stroke="none"/>
</svg>
